<svg xmlns="http://www.w3.org/2000/svg" xmlns:xlink="http://www.w3.org/1999/xlink" width="200" zoomAndPan="magnify" viewBox="0 0 150 74.999997" height="100" preserveAspectRatio="xMidYMid meet" version="1.0"><defs><g/></defs><g fill="#ff8080" fill-opacity="1"><g transform="translate(1.936526, 64.874994)"><g><path d="M 15.632812 -24.382812 C 15.714844 -24.300781 15.875 -24.300781 16.039062 -24.300781 C 17.253906 -20.574219 18.144531 -17.171875 18.792969 -14.257812 C 18.953125 -13.203125 19.277344 -11.421875 19.84375 -8.992188 C 20.332031 -6.5625 20.734375 -4.617188 20.980469 -3.320312 C 21.222656 -1.621094 22.195312 -0.730469 23.8125 -0.648438 C 25.921875 -0.40625 28.027344 -0.242188 30.132812 -0.160156 C 30.375 0 30.617188 0 30.941406 -0.160156 C 31.753906 -0.242188 32.398438 -0.648438 32.722656 -1.296875 C 33.046875 -1.945312 33.046875 -2.671875 32.722656 -3.484375 C 32.722656 -3.484375 32.644531 -3.644531 32.480469 -3.96875 C 32.320312 -4.210938 32.238281 -4.453125 32.238281 -4.617188 C 31.996094 -5.589844 31.589844 -7.210938 31.023438 -9.316406 C 30.375 -11.421875 29.96875 -13.121094 29.808594 -14.257812 C 29.644531 -15.390625 29.242188 -16.847656 28.753906 -18.792969 C 25.351562 -29.890625 23.570312 -35.722656 23.410156 -36.207031 C 23.085938 -37.015625 23.164062 -37.746094 23.652344 -38.394531 C 24.058594 -38.878906 24.460938 -39.445312 24.785156 -40.09375 L 25.839844 -42.28125 L 26.8125 -44.144531 C 27.054688 -44.632812 27.703125 -46.007812 28.753906 -48.4375 C 29.726562 -50.867188 30.699219 -52.648438 31.507812 -53.785156 C 31.589844 -53.863281 31.671875 -54.109375 31.832031 -54.433594 C 32.15625 -55.402344 31.914062 -56.050781 31.105469 -56.539062 C 30.457031 -56.941406 29.726562 -57.105469 28.917969 -57.023438 C 26.40625 -56.863281 24.949219 -56.699219 24.460938 -56.699219 C 22.84375 -56.375 21.707031 -55.566406 20.898438 -54.269531 C 20.25 -53.21875 19.359375 -51.757812 18.226562 -49.816406 C 17.011719 -47.871094 15.957031 -46.089844 15.148438 -44.46875 C 14.257812 -42.847656 13.527344 -41.230469 12.960938 -39.691406 C 12.636719 -39.121094 12.394531 -38.800781 12.148438 -38.800781 L 12.148438 -46.898438 C 12.148438 -47.628906 12.070312 -48.925781 11.90625 -50.785156 C 11.746094 -52.570312 11.746094 -54.027344 11.90625 -55 C 11.90625 -55.808594 11.824219 -56.375 11.582031 -56.699219 C 11.339844 -56.941406 10.855469 -57.023438 10.125 -56.941406 C 9.558594 -56.863281 8.828125 -56.863281 7.9375 -57.023438 C 6.964844 -57.105469 6.316406 -57.1875 5.914062 -57.1875 C 5.589844 -57.105469 4.859375 -57.105469 3.726562 -57.265625 C 2.59375 -57.429688 1.863281 -57.347656 1.699219 -57.1875 C 1.214844 -56.863281 0.972656 -56.457031 1.054688 -55.808594 C 1.214844 -54.835938 1.296875 -52.488281 1.132812 -48.761719 C 0.972656 -45.035156 0.972656 -42.6875 1.054688 -41.796875 C 1.054688 -40.824219 0.972656 -40.175781 0.890625 -39.769531 C 0.566406 -38.71875 0.484375 -36.613281 0.648438 -33.371094 C 0.808594 -30.132812 0.808594 -28.027344 0.808594 -27.054688 C 0.566406 -21.304688 0.40625 -17.011719 0.40625 -14.257812 C 0.40625 -12.472656 0.324219 -10.773438 0.160156 -9.152344 C 0 -7.695312 0 -5.589844 0.160156 -2.835938 C 0.160156 -2.105469 0.324219 -1.621094 0.566406 -1.296875 C 0.808594 -0.972656 1.296875 -0.808594 2.023438 -0.648438 C 3.238281 -0.242188 4.375 -0.160156 5.425781 -0.324219 C 5.992188 -0.40625 6.886719 -0.324219 8.101562 0 C 8.910156 0.242188 9.640625 0.160156 10.207031 -0.324219 C 10.691406 -0.730469 11.015625 -1.378906 11.097656 -2.347656 L 11.097656 -16.199219 C 11.097656 -17.253906 11.339844 -17.980469 11.824219 -18.304688 C 12.636719 -18.953125 13.527344 -20.089844 14.335938 -21.871094 C 14.417969 -22.03125 14.578125 -22.355469 14.902344 -23.003906 Z M 15.632812 -24.382812 "/></g></g></g><g fill="#000000" fill-opacity="1"><g transform="translate(37.40918, 64.874994)"><g><path d="M 1.378906 -29.644531 L 1.378906 -20.492188 C 0.890625 -12.878906 0.40625 -7.695312 0.0820312 -4.941406 C -0.0820312 -3.808594 0.160156 -2.914062 0.808594 -2.105469 C 1.457031 -1.296875 2.269531 -0.808594 3.402344 -0.566406 C 5.023438 -0.160156 6.964844 -0.324219 9.394531 -0.972656 C 13.769531 -2.105469 17.335938 -3.808594 20.089844 -6.074219 C 23.246094 -8.585938 25.921875 -12.71875 28.105469 -18.46875 C 28.753906 -20.492188 29.320312 -23.410156 29.808594 -27.136719 C 30.292969 -31.671875 29.808594 -35.558594 28.269531 -38.636719 C 27.863281 -39.367188 27.378906 -40.5 26.890625 -42.039062 C 25.433594 -46.332031 22.597656 -49.816406 18.46875 -52.488281 C 15.875 -54.109375 13.6875 -55.160156 11.90625 -55.808594 C 11.257812 -55.972656 10.53125 -56.214844 9.71875 -56.375 C 8.910156 -56.539062 7.9375 -56.699219 6.964844 -56.863281 C 5.992188 -57.023438 5.183594 -57.105469 4.699219 -57.265625 C 3.402344 -57.589844 2.105469 -57.1875 0.808594 -56.132812 C 0.160156 -55.648438 0.0820312 -55.160156 0.648438 -54.757812 C 1.132812 -54.269531 1.457031 -53.621094 1.457031 -52.972656 C 1.457031 -52.570312 1.539062 -50.867188 1.699219 -47.953125 C 1.863281 -44.953125 1.863281 -42.6875 1.78125 -41.148438 C 1.621094 -39.691406 1.457031 -37.664062 1.457031 -35.074219 C 1.457031 -32.480469 1.378906 -30.617188 1.378906 -29.644531 Z M 14.011719 -41.066406 C 14.335938 -40.5 14.824219 -40.015625 15.308594 -39.609375 C 15.796875 -39.203125 16.199219 -38.800781 16.523438 -38.476562 C 16.847656 -38.070312 17.089844 -37.585938 17.414062 -36.9375 C 17.820312 -35.722656 18.0625 -32.886719 18.226562 -28.351562 C 18.226562 -25.675781 17.65625 -22.679688 16.363281 -19.359375 C 16.039062 -18.628906 15.714844 -18.144531 15.550781 -17.820312 C 15.390625 -17.496094 15.066406 -17.089844 14.660156 -16.6875 C 14.175781 -16.199219 13.6875 -15.875 13.203125 -15.714844 C 12.71875 -15.550781 12.394531 -15.472656 12.230469 -15.550781 C 12.070312 -15.632812 11.988281 -15.957031 11.988281 -16.441406 C 11.988281 -18.710938 12.148438 -21.949219 12.472656 -26.164062 C 12.554688 -26.890625 12.636719 -27.703125 12.71875 -28.59375 C 12.71875 -29.484375 12.796875 -30.457031 12.796875 -31.507812 C 12.796875 -32.5625 12.878906 -33.371094 12.960938 -34.019531 C 12.960938 -34.992188 13.121094 -36.125 13.285156 -37.261719 C 13.445312 -38.394531 13.527344 -39.285156 13.609375 -40.09375 C 13.609375 -40.417969 13.6875 -40.742188 14.011719 -41.066406 Z M 14.011719 -41.066406 "/></g></g></g><g fill="#000000" fill-opacity="1"><g transform="translate(69.890187, 64.874994)"><g><path d="M 0.160156 -18.871094 C -0.0820312 -17.089844 0.242188 -14.09375 1.132812 -9.882812 C 1.621094 -7.128906 2.914062 -4.941406 4.859375 -3.484375 C 6.804688 -1.945312 9.152344 -1.214844 11.746094 -1.378906 C 12.960938 -1.378906 14.742188 -1.296875 17.171875 -1.132812 C 17.335938 -1.132812 17.65625 -1.132812 18.144531 -1.214844 C 18.550781 -1.214844 18.953125 -1.296875 19.277344 -1.296875 C 19.601562 -1.296875 20.007812 -1.214844 20.332031 -1.054688 C 20.898438 -0.730469 21.789062 -0.648438 23.085938 -0.890625 C 27.539062 -1.78125 30.699219 -4.535156 32.644531 -9.152344 C 33.535156 -11.421875 34.101562 -13.769531 34.34375 -16.28125 C 34.425781 -17.089844 34.507812 -18.304688 34.667969 -19.84375 C 34.75 -21.304688 34.828125 -22.355469 34.910156 -23.003906 C 35.476562 -29.484375 35.800781 -35.722656 35.800781 -41.632812 C 35.800781 -42.445312 35.640625 -44.226562 35.476562 -46.980469 C 35.316406 -49.734375 35.316406 -51.921875 35.476562 -53.460938 C 35.476562 -53.945312 35.234375 -54.59375 34.75 -55.402344 C 34.183594 -56.132812 33.859375 -56.617188 33.777344 -56.863281 C 33.695312 -56.863281 33.453125 -57.023438 33.046875 -57.1875 C 29.726562 -57.347656 27.214844 -57.265625 25.597656 -56.863281 C 24.460938 -56.539062 23.976562 -55.726562 23.976562 -54.59375 C 23.976562 -53.945312 23.894531 -52.972656 23.8125 -51.839844 C 23.734375 -51.273438 23.652344 -50.382812 23.488281 -49.085938 C 23.328125 -47.789062 23.328125 -46.898438 23.328125 -46.414062 C 23.328125 -45.925781 23.328125 -45.035156 23.488281 -43.738281 C 23.570312 -43.578125 23.570312 -43.253906 23.488281 -42.605469 C 23.410156 -41.957031 23.410156 -41.632812 23.410156 -41.472656 C 22.921875 -38.3125 22.761719 -36.367188 22.84375 -35.722656 C 22.921875 -33.695312 22.84375 -30.859375 22.679688 -27.214844 C 22.4375 -23.570312 22.355469 -21.222656 22.355469 -20.25 C 22.355469 -18.0625 21.871094 -16.039062 20.898438 -14.09375 C 20.410156 -13.039062 19.601562 -12.3125 18.46875 -11.90625 C 17.414062 -11.503906 16.441406 -11.503906 15.632812 -11.988281 C 14.742188 -12.394531 14.175781 -13.121094 13.933594 -14.257812 C 13.285156 -16.363281 12.878906 -18.792969 12.796875 -21.464844 L 12.796875 -44.46875 C 12.796875 -44.875 12.796875 -46.25 12.960938 -48.679688 C 13.121094 -51.109375 13.121094 -52.972656 13.121094 -54.269531 C 13.039062 -55.242188 12.878906 -55.972656 12.636719 -56.296875 C 12.394531 -56.617188 11.824219 -56.863281 10.855469 -57.105469 C 10.042969 -57.265625 7.695312 -57.347656 3.726562 -57.347656 C 2.511719 -57.347656 1.78125 -56.699219 1.621094 -55.402344 C 1.296875 -53.703125 1.214844 -51.191406 1.457031 -47.871094 C 1.621094 -46.65625 1.621094 -45.277344 1.539062 -43.820312 C 1.457031 -42.847656 1.296875 -41.148438 1.054688 -38.71875 C 0.808594 -36.289062 0.648438 -34.425781 0.648438 -33.128906 C 0.324219 -24.382812 0.160156 -19.601562 0.160156 -18.871094 Z M 0.160156 -18.871094 "/></g></g></g><g fill="#000000" fill-opacity="1"><g transform="translate(108.122194, 64.874994)"><g><path d="M 26.324219 -26.488281 C 26 -27.539062 25.351562 -29.078125 24.542969 -31.105469 C 23.652344 -33.046875 23.085938 -34.585938 22.761719 -35.558594 L 18.386719 -46.980469 C 18.0625 -47.710938 17.496094 -48.925781 16.523438 -50.625 C 15.550781 -52.246094 14.984375 -53.621094 14.742188 -54.59375 C 14.5 -55.324219 14.011719 -55.808594 13.285156 -56.050781 C 10.53125 -56.863281 7.855469 -57.347656 5.347656 -57.347656 C 4.050781 -57.347656 3.160156 -57.105469 2.671875 -56.617188 C 2.105469 -56.132812 1.78125 -55.242188 1.621094 -54.027344 C 1.132812 -49.976562 0.890625 -47.304688 0.890625 -45.925781 C 0.890625 -43.09375 0.808594 -39.042969 0.648438 -33.859375 C 0.484375 -28.59375 0.40625 -25.027344 0.40625 -23.164062 C 0.40625 -21.222656 0.324219 -20.089844 0.324219 -19.765625 C 0.0820312 -19.765625 0 -17.171875 0 -11.988281 L 0.0820312 -4.210938 C 0.0820312 -3.238281 0.484375 -2.429688 1.296875 -1.78125 C 2.105469 -1.132812 2.914062 -0.808594 3.886719 -0.808594 C 5.75 -0.648438 6.886719 -0.566406 7.289062 -0.484375 C 8.34375 -0.324219 9.152344 -0.648438 9.800781 -1.457031 C 9.964844 -1.78125 10.207031 -2.023438 10.609375 -2.269531 C 11.421875 -2.753906 11.824219 -3.644531 11.824219 -4.859375 C 12.070312 -11.421875 12.230469 -15.390625 12.230469 -16.847656 C 12.230469 -19.519531 12.3125 -23.570312 12.3125 -28.917969 C 12.3125 -30.050781 12.394531 -30.859375 12.71875 -31.429688 C 12.960938 -31.265625 13.203125 -30.941406 13.527344 -30.375 C 14.824219 -27.945312 16.28125 -24.382812 18.0625 -19.765625 C 19.84375 -15.066406 20.980469 -12.070312 21.628906 -10.691406 C 22.355469 -8.828125 23.410156 -5.992188 24.867188 -2.269531 C 25.433594 -0.730469 26.648438 0 28.511719 0 L 29.96875 0 C 30.617188 0 31.105469 0.0820312 31.507812 0.0820312 C 32.804688 0.40625 34.183594 -0.160156 35.640625 -1.699219 C 35.800781 -1.863281 35.964844 -2.105469 36.046875 -2.429688 C 36.046875 -2.671875 36.046875 -2.996094 36.046875 -3.320312 C 35.964844 -3.644531 35.964844 -3.96875 35.964844 -4.132812 C 36.289062 -6.804688 36.53125 -11.582031 36.691406 -18.386719 C 36.691406 -22.4375 36.9375 -26.972656 37.339844 -32.15625 C 37.503906 -33.859375 37.503906 -35.558594 37.339844 -37.179688 C 37.179688 -38.476562 37.097656 -39.527344 37.261719 -40.417969 C 37.421875 -42.445312 37.503906 -43.902344 37.503906 -44.875 C 37.503906 -45.847656 37.421875 -47.304688 37.261719 -49.410156 C 37.097656 -51.433594 37.097656 -52.972656 37.097656 -53.945312 C 37.097656 -54.917969 36.613281 -55.726562 35.640625 -56.375 C 34.34375 -57.105469 32.320312 -57.429688 29.566406 -57.347656 C 28.429688 -57.265625 27.703125 -57.023438 27.296875 -56.699219 C 26.890625 -56.296875 26.648438 -55.566406 26.566406 -54.59375 C 26.488281 -54.351562 26.488281 -54.027344 26.488281 -53.621094 C 26.488281 -48.84375 26.40625 -45.277344 26.40625 -42.929688 C 26.40625 -41.796875 26.40625 -40.09375 26.488281 -37.828125 C 26.566406 -35.558594 26.648438 -33.453125 26.648438 -31.671875 C 26.648438 -29.808594 26.488281 -28.105469 26.324219 -26.488281 Z M 26.324219 -26.488281 "/></g></g></g></svg>