<svg xmlns="http://www.w3.org/2000/svg" xmlns:xlink="http://www.w3.org/1999/xlink" width="200" zoomAndPan="magnify" viewBox="0 0 150 74.999997" height="100" preserveAspectRatio="xMidYMid meet" version="1.0"><defs><g/></defs><g fill="#ff8080" fill-opacity="1"><g transform="translate(4.021947, 70.259494)"><g><path d="M 12.59375 -34.632812 C 12.5 -35.96875 12.402344 -37.6875 12.308594 -39.976562 C 12.210938 -42.265625 12.210938 -43.886719 12.210938 -44.84375 C 12.023438 -46.75 12.117188 -49.613281 12.308594 -53.429688 C 12.5 -57.152344 12.59375 -59.25 12.59375 -59.820312 L 12.59375 -62.492188 C 12.59375 -64.019531 12.59375 -64.972656 12.785156 -65.164062 C 12.976562 -66.5 12.308594 -67.265625 10.78125 -67.453125 C 8.492188 -67.742188 5.914062 -67.453125 3.054688 -66.597656 C 1.90625 -66.308594 1.429688 -65.738281 1.429688 -64.972656 C 1.242188 -61.445312 1.144531 -59.632812 1.144531 -59.632812 C 1.050781 -58.773438 1.050781 -57.628906 1.144531 -56.195312 C 1.144531 -54.671875 1.144531 -53.621094 1.050781 -52.855469 C 0.382812 -47.132812 0.191406 -41.886719 0.382812 -37.113281 C 0.382812 -35.300781 0.382812 -32.726562 0.382812 -29.480469 C 0.285156 -26.238281 0.285156 -24.042969 0.285156 -23.089844 C 0.285156 -22.421875 0.285156 -21.46875 0.285156 -20.226562 C 0.191406 -18.890625 0.191406 -17.9375 0.191406 -17.363281 C 0.285156 -13.355469 0.285156 -10.398438 0.191406 -8.492188 C 0 -5.246094 0.191406 -3.148438 0.761719 -2.386719 C 0.859375 -2.003906 0.859375 -1.71875 0.859375 -1.621094 C 0.476562 -0.761719 0.761719 -0.191406 1.90625 0 C 3.433594 0.285156 4.484375 0.382812 5.152344 0.191406 C 6.105469 -0.09375 7.441406 -0.191406 9.160156 -0.09375 C 10.78125 0.09375 11.640625 -0.667969 11.734375 -2.480469 C 12.023438 -6.488281 12.210938 -10.589844 12.402344 -14.789062 C 12.5 -16.316406 12.976562 -17.554688 13.738281 -18.320312 C 13.835938 -18.414062 14.023438 -18.699219 14.214844 -19.082031 C 14.40625 -19.464844 14.691406 -19.84375 14.980469 -20.035156 C 15.171875 -20.226562 15.457031 -20.226562 15.839844 -20.226562 C 16.21875 -20.035156 16.507812 -19.175781 16.886719 -17.460938 C 17.171875 -15.550781 17.839844 -12.691406 18.890625 -9.0625 C 19.558594 -6.773438 20.035156 -4.867188 20.417969 -3.53125 C 20.609375 -2.480469 20.894531 -1.71875 21.371094 -1.242188 C 21.847656 -0.667969 22.613281 -0.382812 23.566406 -0.382812 C 27.191406 0 29.863281 0.09375 31.484375 -0.285156 C 33.394531 -0.667969 33.871094 -1.71875 33.105469 -3.433594 C 32.535156 -4.578125 31.007812 -8.585938 28.621094 -15.265625 C 28.144531 -16.410156 27.476562 -18.605469 26.523438 -21.945312 C 25.570312 -25.285156 24.710938 -27.859375 23.949219 -29.578125 C 23.660156 -30.054688 23.757812 -30.625 24.140625 -31.199219 C 25.285156 -32.726562 26.238281 -33.773438 27 -34.441406 C 28.144531 -35.398438 28.910156 -36.160156 29.289062 -36.636719 C 29.578125 -37.019531 30.054688 -38.070312 30.722656 -39.59375 C 31.199219 -40.835938 30.816406 -41.695312 29.578125 -42.265625 C 28.8125 -42.457031 27.957031 -42.648438 27.097656 -42.648438 C 23.183594 -42.457031 21.179688 -42.363281 21.179688 -42.363281 C 19.082031 -42.171875 17.746094 -41.503906 17.078125 -40.359375 C 16.984375 -40.167969 16.792969 -39.882812 16.410156 -39.5 C 16.027344 -39.117188 15.839844 -38.738281 15.742188 -38.546875 C 15.457031 -37.972656 15.265625 -37.589844 15.171875 -37.402344 C 14.980469 -37.210938 14.882812 -36.921875 14.691406 -36.734375 C 14.503906 -36.445312 14.3125 -36.253906 14.214844 -36.253906 C 14.121094 -36.160156 13.929688 -35.96875 13.546875 -35.589844 Z M 12.59375 -34.632812 "/></g></g></g><g fill="#202020" fill-opacity="1"><g transform="translate(40.46329, 70.259494)"><g><path d="M 32.4375 -44.652344 C 32.4375 -45.128906 32.535156 -46.179688 32.535156 -47.800781 C 32.535156 -48.46875 32.4375 -49.613281 32.4375 -51.140625 C 32.4375 -52.667969 32.4375 -53.8125 32.4375 -54.574219 C 32.4375 -55.148438 32.4375 -56.003906 32.535156 -56.960938 C 32.535156 -57.914062 32.628906 -58.488281 32.628906 -58.867188 C 32.628906 -60.488281 30.246094 -61.347656 25.570312 -61.347656 C 24.234375 -61.347656 23.28125 -61.15625 22.804688 -60.871094 C 22.230469 -60.488281 21.945312 -59.917969 21.945312 -58.964844 C 21.65625 -56.003906 21.5625 -52.761719 21.5625 -49.136719 C 21.5625 -47.992188 21.5625 -46.65625 21.753906 -45.128906 C 21.847656 -43.601562 21.945312 -42.648438 21.945312 -42.363281 C 21.945312 -41.789062 21.5625 -41.40625 20.988281 -41.3125 C 20.324219 -41.121094 19.464844 -41.121094 18.414062 -41.121094 C 17.363281 -41.121094 16.507812 -41.027344 15.933594 -40.835938 C 5.34375 -35.875 0.09375 -28.144531 0.09375 -17.652344 C 0.09375 -13.738281 1.335938 -10.113281 3.816406 -6.679688 C 6.296875 -3.242188 9.636719 -1.621094 13.835938 -1.621094 C 14.40625 -1.621094 15.171875 -1.621094 16.316406 -1.8125 C 17.363281 -2.003906 18.222656 -2.097656 18.796875 -2.097656 C 19.175781 -2.097656 19.941406 -1.71875 21.085938 -1.144531 C 22.136719 -0.476562 23.183594 -0.09375 24.140625 -0.09375 C 27.191406 -0.09375 29.289062 -0.382812 30.339844 -1.050781 C 31.390625 -1.621094 31.960938 -2.863281 31.960938 -4.769531 L 31.960938 -5.914062 C 31.960938 -10.6875 31.960938 -17.460938 32.152344 -26.238281 C 32.34375 -35.015625 32.4375 -41.121094 32.4375 -44.652344 Z M 12.117188 -19.464844 C 12.117188 -19.558594 12.023438 -19.65625 12.023438 -19.84375 C 12.023438 -20.035156 12.023438 -20.132812 12.023438 -20.226562 C 12.023438 -21.847656 12.785156 -23.566406 14.3125 -25.472656 C 15.457031 -27 16.410156 -27.957031 17.269531 -28.433594 C 18.03125 -28.910156 19.175781 -29.195312 20.703125 -29.195312 C 21.277344 -29.195312 21.5625 -28.71875 21.5625 -27.957031 C 21.5625 -27.574219 21.46875 -27.097656 21.371094 -26.523438 C 21.277344 -25.855469 21.277344 -25.378906 21.277344 -24.996094 L 21.277344 -23.660156 C 21.277344 -21.5625 20.988281 -18.414062 20.511719 -14.214844 C 20.324219 -12.59375 19.082031 -11.832031 16.886719 -11.832031 C 13.644531 -11.832031 12.023438 -14.023438 12.023438 -18.414062 C 12.023438 -18.796875 12.023438 -19.175781 12.117188 -19.464844 Z M 12.117188 -19.464844 "/></g></g></g><g fill="#202020" fill-opacity="1"><g transform="translate(76.051253, 70.259494)"><g><path d="M 0 -23.851562 L 0 -22.136719 C 0 -21.371094 0.09375 -19.75 0.09375 -17.078125 C 0.09375 -14.40625 0.191406 -12.402344 0.382812 -11.066406 C 0.761719 -8.207031 1.71875 -6.105469 3.054688 -4.769531 C 5.535156 -2.097656 9.160156 -0.859375 13.929688 -1.144531 C 15.265625 -1.144531 16.984375 -1.621094 19.082031 -2.765625 C 19.84375 -3.148438 20.226562 -3.339844 20.324219 -3.339844 C 20.511719 -3.339844 20.703125 -3.242188 20.800781 -3.054688 C 20.894531 -2.863281 20.988281 -2.671875 20.988281 -2.480469 C 20.988281 -2.289062 21.085938 -2.097656 21.179688 -2.097656 C 21.179688 -2.003906 21.277344 -1.90625 21.371094 -1.8125 C 21.46875 -1.621094 21.5625 -1.527344 21.65625 -1.527344 C 23.472656 -0.285156 24.902344 0.285156 25.855469 0.09375 L 29.578125 0.09375 C 30.53125 0.09375 31.390625 -0.09375 32.25 -0.667969 C 33.011719 -1.050781 33.105469 -1.527344 32.726562 -2.289062 C 32.058594 -3.625 31.773438 -4.390625 31.773438 -4.675781 C 31.960938 -5.246094 31.960938 -6.390625 31.960938 -8.300781 C 31.867188 -10.113281 31.867188 -11.355469 31.960938 -11.925781 C 32.34375 -15.359375 32.535156 -17.9375 32.535156 -19.65625 C 32.4375 -20.035156 32.535156 -21.277344 32.726562 -23.375 C 32.820312 -24.234375 32.820312 -25.570312 32.726562 -27.476562 C 32.726562 -28.242188 32.535156 -29.671875 32.34375 -31.582031 C 32.152344 -33.488281 32.058594 -34.921875 32.058594 -35.96875 C 32.25 -37.210938 32.34375 -37.878906 32.4375 -37.972656 C 32.726562 -38.164062 32.917969 -38.449219 32.917969 -38.738281 C 32.917969 -38.925781 32.820312 -39.214844 32.628906 -39.59375 L 32.34375 -40.261719 C 32.058594 -41.21875 31.390625 -41.789062 30.246094 -41.789062 L 27.382812 -41.789062 C 26.046875 -41.789062 25.09375 -41.695312 24.519531 -41.695312 C 23.375 -41.597656 22.707031 -41.40625 22.324219 -41.027344 C 21.945312 -40.644531 21.65625 -39.882812 21.65625 -38.832031 C 21.371094 -34.441406 21.277344 -31.199219 21.277344 -29.003906 C 21.277344 -24.902344 20.324219 -20.894531 18.605469 -16.984375 C 17.839844 -15.359375 16.695312 -13.929688 14.980469 -12.785156 C 14.023438 -12.117188 13.261719 -12.023438 12.59375 -12.402344 C 11.832031 -12.785156 11.449219 -13.453125 11.355469 -14.597656 C 11.355469 -14.691406 11.257812 -14.882812 11.257812 -15.171875 C 11.257812 -15.457031 11.257812 -15.648438 11.257812 -15.839844 L 11.257812 -18.988281 C 11.257812 -20.324219 11.257812 -21.371094 11.355469 -22.136719 L 11.355469 -27.667969 C 11.355469 -30.625 11.355469 -32.917969 11.542969 -34.632812 C 11.734375 -36.734375 11.355469 -38.640625 10.496094 -40.359375 C 9.921875 -41.21875 9.253906 -41.597656 8.585938 -41.503906 C 7.824219 -41.3125 6.773438 -41.3125 5.535156 -41.3125 C 4.292969 -41.3125 3.339844 -41.21875 2.671875 -41.027344 C 1.90625 -40.738281 1.429688 -40.550781 1.242188 -40.359375 C 1.050781 -40.167969 0.859375 -39.785156 0.761719 -39.023438 C 0.382812 -37.113281 0.09375 -32.058594 0 -23.851562 Z M 0 -23.851562 "/></g></g></g><g fill="#202020" fill-opacity="1"><g transform="translate(111.925451, 70.259494)"><g><path d="M 11.449219 -37.210938 C 11.257812 -37.6875 11.257812 -38.257812 11.449219 -39.023438 C 11.832031 -40.453125 11.257812 -41.21875 9.921875 -41.21875 C 8.777344 -41.21875 7.058594 -41.3125 4.867188 -41.3125 C 4.390625 -41.3125 3.339844 -41.027344 1.71875 -40.644531 C 0.761719 -40.261719 0.476562 -39.691406 0.859375 -38.925781 C 1.050781 -38.546875 1.050781 -38.070312 0.953125 -37.304688 C 0.761719 -36.636719 0.667969 -35.683594 0.667969 -34.441406 C 0.667969 -30.914062 0.574219 -23.089844 0.285156 -10.972656 C 0.191406 -10.019531 0.191406 -8.777344 0.191406 -7.058594 C 0.191406 -5.34375 0.09375 -4.101562 0.09375 -3.242188 C -0.09375 -1.621094 0.761719 -0.761719 2.574219 -0.761719 C 4.007812 -0.574219 5.722656 -0.667969 7.726562 -0.859375 C 8.875 -0.859375 9.730469 -1.242188 10.304688 -1.8125 C 10.875 -2.386719 11.257812 -3.242188 11.542969 -4.484375 C 11.832031 -6.773438 11.925781 -8.875 11.925781 -10.589844 C 11.734375 -14.597656 12.5 -19.84375 14.3125 -26.332031 C 14.597656 -27.191406 14.980469 -27.957031 15.550781 -28.621094 C 16.984375 -30.148438 18.128906 -30.054688 18.890625 -28.144531 C 19.464844 -26.523438 19.84375 -25.09375 19.84375 -23.757812 C 19.65625 -21.847656 19.65625 -20.511719 19.84375 -19.558594 C 20.324219 -15.457031 20.324219 -11.449219 19.84375 -7.441406 C 19.65625 -6.296875 19.558594 -4.578125 19.464844 -2.195312 C 19.367188 -1.429688 19.65625 -0.859375 20.324219 -0.667969 C 20.800781 -0.382812 21.277344 -0.285156 21.65625 -0.285156 C 22.230469 -0.191406 22.804688 -0.191406 23.375 -0.191406 C 23.851562 -0.191406 24.425781 -0.191406 25.09375 -0.191406 C 25.664062 -0.191406 26.238281 -0.09375 26.808594 0 C 27.289062 0.09375 27.859375 -0.09375 28.527344 -0.476562 C 28.8125 -0.667969 29.101562 -0.761719 29.480469 -0.953125 C 30.246094 -1.144531 30.625 -1.335938 30.816406 -1.527344 C 30.914062 -1.71875 31.007812 -2.097656 31.105469 -2.863281 L 31.105469 -4.867188 C 31.105469 -7.25 31.007812 -10.6875 30.914062 -15.074219 C 30.722656 -19.464844 30.722656 -22.324219 30.722656 -23.660156 C 30.53125 -26.90625 30.339844 -29.671875 29.957031 -31.960938 C 29.480469 -34.347656 29.101562 -35.875 28.8125 -36.636719 C 28.71875 -36.636719 28.527344 -36.921875 28.335938 -37.402344 C 28.144531 -37.78125 27.957031 -38.070312 27.859375 -38.257812 C 27.765625 -38.449219 27.574219 -38.640625 27.382812 -39.023438 C 27.191406 -39.40625 27 -39.59375 26.808594 -39.785156 C 26.621094 -39.976562 26.429688 -40.167969 26.238281 -40.359375 C 25.953125 -40.550781 25.664062 -40.644531 25.378906 -40.835938 C 22.324219 -41.789062 19.367188 -41.789062 16.695312 -40.738281 C 15.648438 -40.261719 13.929688 -39.117188 11.449219 -37.210938 Z M 11.449219 -37.210938 "/></g></g></g></svg>