<svg xmlns="http://www.w3.org/2000/svg" xmlns:xlink="http://www.w3.org/1999/xlink" width="50" zoomAndPan="magnify" viewBox="0 0 37.5 37.499999" height="50" preserveAspectRatio="xMidYMid meet" version="1.0"><defs><clipPath id="85ec6f53c1"><path d="M 0 3.75 L 37.007812 3.75 L 37.007812 10.5 L 0 10.5 Z M 0 3.75 " clip-rule="nonzero"/></clipPath><clipPath id="3a1ce34d3b"><path d="M 0 15.234375 L 37.007812 15.234375 L 37.007812 21.984375 L 0 21.984375 Z M 0 15.234375 " clip-rule="nonzero"/></clipPath><clipPath id="eb6505a083"><path d="M 0 26.71875 L 37.007812 26.71875 L 37.007812 33.46875 L 0 33.46875 Z M 0 26.71875 " clip-rule="nonzero"/></clipPath></defs><g clip-path="url(#85ec6f53c1)"><path fill="#202020" d="M 36.03125 4.351562 C 35.816406 4.28125 35.53125 4.253906 35.242188 4.230469 C 35.261719 4.214844 35.269531 4.195312 35.265625 4.164062 C 35.105469 4.160156 35.035156 4.214844 34.863281 4.199219 C 34.914062 4.167969 34.871094 4.140625 34.785156 4.152344 C 34.835938 4.113281 34.992188 4.136719 34.988281 4.183594 C 35.019531 4.179688 35.015625 4.152344 34.988281 4.152344 C 35.402344 4.171875 35.828125 4.105469 36.179688 4.175781 C 35.972656 4.039062 35.296875 4.039062 34.988281 3.960938 C 35.007812 3.921875 35.144531 3.945312 35.113281 3.992188 C 35.148438 3.976562 35.207031 3.976562 35.214844 3.941406 C 35.488281 3.996094 35.800781 4.015625 36.078125 4 C 36.390625 4.117188 36.8125 4.160156 36.992188 4.363281 C 37.003906 4.492188 36.96875 4.558594 36.996094 4.664062 C 36.914062 4.800781 36.824219 4.929688 36.667969 5.015625 C 36.777344 5.148438 36.84375 5.246094 36.847656 5.382812 C 36.816406 5.410156 36.664062 5.441406 36.773438 5.464844 C 36.722656 5.484375 36.667969 5.503906 36.621094 5.527344 C 36.632812 5.570312 36.761719 5.582031 36.699219 5.625 C 36.609375 5.636719 36.601562 5.601562 36.519531 5.609375 C 36.539062 5.703125 36.726562 5.742188 36.777344 5.863281 C 36.839844 6.011719 36.722656 6.1875 36.730469 6.371094 C 36.480469 6.375 36.570312 6.609375 36.222656 6.582031 C 36.484375 6.6875 36.867188 6.789062 37.191406 6.800781 C 37.246094 6.863281 37.332031 7.035156 37.191406 7.085938 C 37.222656 7.117188 37.257812 7.140625 37.292969 7.167969 C 37.242188 7.207031 37.035156 7.167969 37.117188 7.246094 C 36.863281 7.285156 36.535156 7.230469 36.355469 7.363281 C 36.359375 7.40625 36.453125 7.390625 36.484375 7.410156 C 36.492188 7.453125 36.4375 7.503906 36.460938 7.539062 C 36.601562 7.570312 36.53125 7.597656 36.664062 7.601562 C 36.632812 7.644531 36.585938 7.679688 36.488281 7.683594 C 36.5625 7.722656 36.707031 7.722656 36.742188 7.792969 C 36.453125 7.867188 36.324219 7.816406 36.003906 7.828125 C 36.464844 7.910156 36.875 8.023438 37.25 8.15625 C 37.253906 8.226562 37.261719 8.296875 37.199219 8.285156 C 37.25 8.332031 37.285156 8.296875 37.328125 8.265625 C 37.355469 8.402344 37.371094 8.488281 37.507812 8.570312 C 37.457031 8.683594 37.28125 8.636719 37.128906 8.667969 C 37.152344 8.742188 37.183594 8.8125 37.304688 8.824219 C 37.226562 8.96875 36.796875 8.949219 36.648438 9.003906 C 36.707031 9.101562 36.867188 9.019531 37.003906 9.003906 C 36.96875 9.066406 37.058594 9.050781 37.054688 9.097656 C 36.605469 9.113281 36.5625 9.246094 36.09375 9.199219 C 36.078125 9.617188 35.746094 9.832031 35.566406 10.144531 C 35.347656 10.105469 35.25 10.175781 35.136719 10.242188 C 35.125 10.289062 35.273438 10.230469 35.261719 10.273438 C 35.066406 10.332031 34.785156 10.320312 34.503906 10.34375 C 34.238281 10.363281 34.015625 10.367188 33.84375 10.300781 C 32.539062 10.460938 31.515625 10.335938 30.140625 10.40625 C 30.117188 10.355469 30.226562 10.382812 30.21875 10.34375 C 29.796875 10.339844 29.054688 10.460938 28.644531 10.371094 C 28.5625 10.382812 28.609375 10.316406 28.570312 10.304688 C 28.246094 10.316406 27.960938 10.417969 27.757812 10.3125 C 27.300781 10.289062 26.796875 10.417969 26.464844 10.320312 C 25.128906 10.34375 24.058594 10.402344 22.9375 10.28125 C 22.300781 10.253906 21.78125 10.296875 21.136719 10.261719 C 21.226562 10.1875 21.4375 10.1875 21.617188 10.164062 C 21.382812 10.136719 21 10.132812 20.679688 10.15625 C 19.601562 10.230469 18.480469 10.207031 17.382812 10.164062 C 17.332031 10.125 17.390625 10.144531 17.40625 10.113281 C 17.191406 10.0625 16.964844 10.132812 16.773438 10.152344 C 16.726562 10.121094 16.769531 10.109375 16.773438 10.070312 C 16.554688 10.050781 16.621094 10.117188 16.496094 10.136719 C 16.375 10.152344 16.53125 10.09375 16.445312 10.089844 C 16.390625 10.082031 16.394531 10.113281 16.394531 10.136719 C 16.101562 10.117188 15.871094 10.101562 15.53125 10.128906 C 15.425781 10.136719 15.550781 10.085938 15.480469 10.0625 C 15.054688 10.058594 14.449219 10.152344 13.984375 10.105469 C 13.765625 10.085938 13.625 10.109375 13.375 10.109375 C 13.164062 10.113281 12.953125 10.027344 12.714844 10.003906 C 12.519531 9.984375 12.226562 10.050781 11.929688 10.007812 C 11.933594 9.988281 12.003906 10.003906 12.003906 9.976562 C 11.140625 10.007812 10.082031 10.011719 9.265625 10.09375 C 8.28125 10.03125 7.140625 10.1875 6.25 10.175781 C 6.269531 10.152344 6.3125 10.144531 6.375 10.144531 C 5.503906 10.082031 4.164062 10.070312 3.054688 10.105469 C 2.949219 10.113281 2.945312 10.1875 2.800781 10.171875 C 2.734375 10.261719 2.527344 10.269531 2.394531 10.300781 C 2.371094 10.304688 2.296875 10.347656 2.269531 10.347656 C 1.863281 10.367188 1.984375 10.070312 1.757812 9.921875 C 1.640625 9.96875 1.515625 9.988281 1.402344 9.925781 C 1.410156 9.824219 1.597656 9.832031 1.65625 9.765625 C 1.625 9.742188 1.511719 9.710938 1.503906 9.765625 C 1.445312 9.734375 1.445312 9.683594 1.503906 9.652344 C 1.414062 9.644531 1.441406 9.710938 1.351562 9.703125 C 1.339844 9.667969 1.367188 9.660156 1.375 9.636719 C 1.296875 9.628906 1.296875 9.667969 1.25 9.640625 C 1.242188 9.539062 1.253906 9.453125 1.347656 9.414062 C 0.839844 9.3125 0.425781 9.054688 0 8.851562 C 0.0117188 8.75 0.140625 8.726562 0.152344 8.625 C 0.460938 8.566406 0.660156 8.539062 1.039062 8.523438 C 1.097656 8.492188 0.992188 8.433594 1.0625 8.394531 C 1.167969 8.410156 1.316406 8.40625 1.390625 8.332031 C 1.296875 8.308594 1.253906 8.324219 1.136719 8.300781 C 1.152344 8.261719 1.222656 8.257812 1.238281 8.21875 C 1.078125 8.128906 1.332031 7.984375 1.234375 7.882812 C 1.277344 7.847656 1.378906 7.910156 1.464844 7.898438 C 1.332031 7.851562 1.601562 7.871094 1.640625 7.832031 C 1.628906 7.800781 1.429688 7.871094 1.488281 7.804688 C 1.234375 7.828125 1.308594 7.792969 1.109375 7.804688 C 1.140625 7.5625 1.527344 7.46875 1.941406 7.351562 C 1.882812 7.304688 1.789062 7.210938 1.839844 7.148438 C 1.804688 7.117188 1.695312 7.175781 1.636719 7.179688 C 1.636719 7.132812 1.703125 7.125 1.710938 7.082031 C 1.652344 7.046875 1.664062 7.109375 1.585938 7.101562 C 1.660156 7.007812 1.796875 7.035156 1.914062 6.988281 C 1.796875 6.925781 1.679688 6.984375 1.53125 6.988281 C 1.542969 6.964844 1.613281 6.976562 1.582031 6.925781 C 1.511719 6.921875 1.535156 6.980469 1.429688 6.957031 C 1.417969 6.910156 1.507812 6.921875 1.480469 6.863281 C 1.351562 6.882812 1.191406 6.894531 1.074219 6.882812 C 1.074219 6.824219 1.164062 6.820312 1.203125 6.785156 C 1.117188 6.757812 1.058594 6.800781 0.949219 6.800781 C 0.9375 6.730469 0.9375 6.65625 1.125 6.640625 C 1.117188 6.605469 1.128906 6.582031 1.148438 6.5625 C 1.042969 6.515625 0.996094 6.542969 0.769531 6.53125 C 0.730469 6.460938 0.875 6.40625 0.84375 6.355469 C 0.773438 6.238281 0.632812 6.261719 0.4375 6.261719 C 0.519531 6.199219 0.480469 6.15625 0.5625 6.101562 C 0.433594 6.054688 0.527344 5.996094 0.535156 5.894531 C 0.582031 5.894531 0.589844 5.914062 0.636719 5.910156 C 0.695312 5.742188 1.136719 5.808594 1.191406 5.636719 C 1.074219 5.605469 1.148438 5.453125 1.039062 5.414062 C 1.179688 5.203125 1.050781 4.828125 1.515625 4.820312 C 1.488281 4.75 1.40625 4.71875 1.261719 4.726562 C 1.285156 4.652344 1.207031 4.644531 1.109375 4.648438 C 1.148438 4.566406 1.164062 4.558594 1.058594 4.519531 C 1.171875 4.378906 1.140625 4.238281 1.257812 4.039062 C 2.304688 4.097656 3.757812 4.09375 4.679688 4.144531 C 4.707031 4.144531 4.699219 4.125 4.707031 4.113281 C 4.90625 4.199219 5.21875 4.148438 5.414062 4.089844 C 5.402344 4.105469 5.390625 4.117188 5.390625 4.140625 C 5.5 4.148438 5.535156 4.109375 5.644531 4.121094 C 5.863281 4.15625 6.671875 4.054688 7.191406 4.046875 C 7.761719 4.035156 8.355469 3.960938 8.636719 3.890625 C 8.726562 4.027344 9.015625 3.976562 9.320312 3.96875 C 9.398438 3.960938 9.363281 4.023438 9.421875 4.03125 C 9.578125 3.960938 10.03125 4.070312 10.207031 3.976562 C 10.222656 3.933594 10.199219 3.917969 10.132812 3.929688 C 10.3125 3.875 10.539062 3.933594 10.742188 3.894531 C 10.722656 3.878906 10.683594 3.878906 10.6875 3.84375 C 11.035156 3.863281 11.40625 3.917969 11.628906 4 C 11.753906 3.964844 11.828125 4.015625 11.933594 4.027344 C 12.234375 4.066406 12.691406 3.992188 13.050781 3.988281 C 14.15625 3.976562 15.242188 4.0625 16.269531 3.996094 C 16.285156 4.011719 16.328125 4.011719 16.320312 4.046875 C 17.125 4.03125 17.765625 3.976562 18.550781 3.980469 C 18.558594 3.9375 18.5 3.941406 18.449219 3.933594 C 18.652344 3.917969 18.84375 3.976562 19.007812 4.011719 C 19.183594 3.898438 19.320312 4.023438 19.566406 4.023438 C 19.582031 4.058594 19.519531 4.046875 19.515625 4.070312 C 20.339844 4.125 21.078125 3.878906 21.925781 4.003906 C 21.957031 3.976562 22.007812 3.960938 22.078125 3.957031 C 22.054688 4.058594 21.820312 4.03125 21.699219 4.070312 C 22.085938 4.074219 22.554688 4.019531 23.015625 4.109375 C 23.175781 3.960938 23.636719 4.050781 24.003906 4.007812 C 24.011719 4.03125 23.980469 4.035156 23.980469 4.054688 C 24.097656 4.054688 24.171875 4.082031 24.285156 4.085938 C 24.285156 4.03125 24.191406 4.039062 24.105469 4.039062 C 24.308594 3.957031 24.59375 4.09375 24.6875 3.9375 C 24.828125 3.957031 24.917969 3.957031 24.992188 3.902344 C 25 3.929688 24.96875 3.929688 24.96875 3.953125 C 25.671875 4.039062 26.46875 4.03125 27.378906 4.03125 C 27.367188 3.96875 27.203125 4.003906 27.148438 3.96875 C 28.011719 3.890625 28.980469 4.125 29.863281 3.949219 C 29.738281 3.898438 29.453125 3.910156 29.355469 3.890625 C 29.300781 3.878906 29.1875 3.910156 29.175781 3.875 C 29.464844 3.878906 29.566406 3.832031 29.8125 3.839844 C 29.851562 3.820312 29.863281 3.785156 29.9375 3.789062 C 29.882812 3.824219 29.949219 3.835938 29.9375 3.886719 C 30.046875 3.898438 30.078125 3.867188 30.140625 3.851562 C 30.28125 3.921875 30.410156 3.894531 30.570312 3.847656 C 31.453125 4.003906 32.578125 3.867188 33.566406 3.921875 C 33.328125 4 32.972656 3.921875 32.753906 4.023438 C 32.796875 4.066406 33.007812 4.003906 32.957031 4.101562 C 33.066406 4.113281 33.0625 4.050781 33.160156 4.054688 C 33.191406 4.074219 33.195312 4.113281 33.160156 4.132812 C 33.367188 4.09375 33.75 4.101562 34 4.191406 C 33.921875 4.191406 33.847656 4.191406 33.769531 4.191406 C 34.296875 4.230469 35.109375 4.324219 35.722656 4.308594 C 35.777344 4.386719 35.832031 4.308594 36.03125 4.351562 Z M 17.792969 4.082031 C 17.917969 4.074219 18.050781 4.09375 17.945312 4.144531 C 18.046875 4.152344 18.074219 4.109375 18.148438 4.097656 C 18.039062 4.097656 18.085938 4.058594 18.121094 4.03125 C 18.023438 4.089844 17.808594 3.976562 17.792969 4.082031 Z M 30.117188 3.980469 C 30.085938 3.976562 30.066406 3.953125 30.066406 3.996094 C 30.195312 3.992188 30.320312 3.976562 30.394531 3.992188 C 30.386719 3.925781 30.175781 3.9375 30.117188 3.980469 Z M 23.121094 4.378906 C 23.097656 4.4375 23.261719 4.414062 23.246094 4.378906 C 23.183594 4.378906 23.167969 4.347656 23.121094 4.378906 Z M 23.296875 4.410156 C 23.382812 4.398438 23.535156 4.429688 23.578125 4.390625 C 23.441406 4.382812 23.386719 4.339844 23.296875 4.410156 Z M 19.523438 5.171875 C 19.597656 5.21875 19.742188 5.160156 19.753906 5.21875 C 19.828125 5.21875 19.882812 5.167969 19.929688 5.199219 C 19.929688 5.179688 19.929688 5.15625 19.929688 5.136719 C 19.804688 5.152344 19.632812 5.140625 19.523438 5.171875 Z M 31.402344 5.949219 C 31.476562 5.933594 31.585938 5.933594 31.601562 5.882812 C 31.503906 5.882812 31.378906 5.871094 31.402344 5.949219 Z M 31.960938 6.054688 C 32.308594 6.023438 31.808594 6.007812 31.757812 6.058594 C 31.839844 6.054688 31.90625 6.058594 31.960938 6.054688 Z M 8.964844 7.097656 C 8.984375 7.109375 9.121094 7.113281 9.117188 7.0625 C 9.050781 7.0625 8.96875 7.054688 8.964844 7.097656 Z M 16.527344 7.96875 C 16.5625 7.910156 16.378906 7.90625 16.351562 7.9375 C 16.449219 7.921875 16.414062 7.992188 16.527344 7.96875 Z M 16.933594 7.964844 C 17.160156 7.992188 17.347656 7.964844 17.621094 7.976562 C 17.480469 7.953125 17.074219 7.902344 16.933594 7.964844 Z M 18.253906 7.972656 C 18.214844 7.96875 18.164062 7.972656 18.175781 7.941406 C 18.023438 7.972656 17.789062 7.9375 17.671875 7.945312 C 17.949219 7.996094 18.082031 8.007812 18.253906 7.972656 Z M 15.589844 8.054688 C 15.417969 8.078125 15.175781 8.011719 15.109375 8.074219 C 15.40625 8.117188 16.0625 8.132812 16.402344 8.0625 C 16.132812 8.046875 15.96875 8.011719 15.71875 8.039062 C 15.914062 8.09375 15.542969 8.015625 15.539062 8.023438 C 15.570312 8.027344 15.578125 8.039062 15.589844 8.054688 Z M 18.429688 8.035156 C 18.492188 8.035156 18.550781 8.03125 18.609375 8.03125 C 18.617188 7.96875 18.4375 8.007812 18.429688 8.035156 Z M 16.480469 8.0625 C 16.464844 8.066406 16.449219 8.066406 16.453125 8.078125 C 16.566406 8.085938 16.910156 8.066406 16.632812 8.0625 C 16.578125 8.027344 16.550781 8.078125 16.503906 8.046875 C 16.503906 8.039062 16.5 8.027344 16.476562 8.03125 C 16.480469 8.042969 16.480469 8.054688 16.480469 8.0625 Z M 15.035156 8.167969 C 15.007812 8.203125 14.941406 8.207031 14.90625 8.234375 C 15.460938 8.257812 16.402344 8.238281 17.039062 8.21875 C 16.476562 8.132812 15.699219 8.222656 15.035156 8.167969 Z M 33.25 8.804688 C 33.507812 8.90625 33.886719 8.945312 34.214844 8.925781 C 33.878906 8.914062 33.515625 8.757812 33.25 8.804688 Z M 32.132812 8.972656 C 32.214844 9.019531 32.429688 9.011719 32.515625 8.972656 C 32.507812 9.007812 32.519531 9.03125 32.566406 9.035156 C 32.609375 9 32.546875 9.003906 32.589844 8.96875 C 32.449219 8.90625 32.300781 8.941406 32.132812 8.972656 Z M 31.675781 8.992188 C 31.777344 8.988281 31.820312 9.019531 31.929688 9.007812 C 31.921875 8.925781 31.679688 8.960938 31.675781 8.992188 Z M 33.886719 9.121094 C 33.96875 9.132812 34.042969 9.132812 34.1875 9.132812 C 34.1875 9.0625 33.96875 9.105469 33.886719 9.121094 Z M 11.292969 9.855469 C 11.230469 9.882812 11.046875 9.828125 10.964844 9.875 C 11.019531 9.921875 11.257812 9.914062 11.292969 9.855469 Z M 22.328125 9.9375 C 22.234375 9.949219 22.183594 9.898438 22.125 9.9375 C 22.21875 10.011719 22.429688 9.988281 22.605469 9.980469 C 22.890625 9.972656 23.160156 9.933594 23.441406 9.960938 C 23.171875 9.875 22.539062 9.921875 22.328125 9.9375 Z M 23.847656 9.941406 C 23.960938 9.960938 24.222656 9.941406 24.378906 9.90625 C 24.195312 9.925781 23.875 9.847656 23.847656 9.941406 Z M 25.394531 9.898438 C 25.390625 9.96875 25.148438 9.894531 25.140625 9.964844 C 25.269531 9.988281 25.359375 9.96875 25.472656 9.945312 C 25.484375 9.988281 25.492188 10 25.546875 10.039062 C 26.074219 9.902344 26.585938 10.125 27.09375 9.980469 C 26.535156 9.914062 25.953125 9.992188 25.394531 9.898438 Z M 20.730469 9.996094 C 20.601562 9.996094 20.4375 9.925781 20.375 10.03125 C 20.832031 10.054688 21.285156 10.042969 21.742188 9.957031 C 21.414062 9.957031 21.046875 9.996094 20.730469 9.996094 Z M 20.730469 9.996094 " fill-opacity="1" fill-rule="evenodd"/></g><g clip-path="url(#3a1ce34d3b)"><path fill="#202020" d="M 36.03125 15.835938 C 35.816406 15.765625 35.53125 15.738281 35.242188 15.714844 C 35.261719 15.699219 35.269531 15.679688 35.265625 15.648438 C 35.105469 15.644531 35.035156 15.699219 34.863281 15.683594 C 34.914062 15.652344 34.871094 15.625 34.785156 15.636719 C 34.835938 15.597656 34.992188 15.621094 34.988281 15.667969 C 35.019531 15.664062 35.015625 15.636719 34.988281 15.636719 C 35.402344 15.65625 35.828125 15.589844 36.179688 15.660156 C 35.972656 15.523438 35.296875 15.523438 34.988281 15.445312 C 35.007812 15.40625 35.144531 15.429688 35.113281 15.476562 C 35.148438 15.460938 35.207031 15.460938 35.214844 15.425781 C 35.488281 15.480469 35.800781 15.5 36.078125 15.484375 C 36.390625 15.601562 36.8125 15.644531 36.992188 15.847656 C 37.003906 15.976562 36.96875 16.042969 36.996094 16.148438 C 36.914062 16.285156 36.824219 16.414062 36.667969 16.5 C 36.777344 16.632812 36.84375 16.730469 36.847656 16.867188 C 36.816406 16.894531 36.664062 16.925781 36.773438 16.949219 C 36.722656 16.96875 36.667969 16.988281 36.621094 17.011719 C 36.632812 17.054688 36.761719 17.066406 36.699219 17.109375 C 36.609375 17.121094 36.601562 17.085938 36.519531 17.09375 C 36.539062 17.1875 36.726562 17.226562 36.777344 17.347656 C 36.839844 17.496094 36.722656 17.671875 36.730469 17.855469 C 36.480469 17.859375 36.570312 18.09375 36.222656 18.066406 C 36.484375 18.171875 36.867188 18.273438 37.191406 18.285156 C 37.246094 18.347656 37.332031 18.519531 37.191406 18.570312 C 37.222656 18.601562 37.257812 18.625 37.292969 18.652344 C 37.242188 18.691406 37.035156 18.652344 37.117188 18.730469 C 36.863281 18.769531 36.535156 18.714844 36.355469 18.847656 C 36.359375 18.890625 36.453125 18.875 36.484375 18.894531 C 36.492188 18.9375 36.4375 18.988281 36.460938 19.023438 C 36.601562 19.054688 36.53125 19.082031 36.664062 19.085938 C 36.632812 19.128906 36.585938 19.164062 36.488281 19.167969 C 36.5625 19.207031 36.707031 19.207031 36.742188 19.277344 C 36.453125 19.351562 36.324219 19.300781 36.003906 19.3125 C 36.464844 19.394531 36.875 19.507812 37.25 19.640625 C 37.253906 19.710938 37.261719 19.78125 37.199219 19.769531 C 37.25 19.816406 37.285156 19.78125 37.328125 19.75 C 37.355469 19.886719 37.371094 19.972656 37.507812 20.054688 C 37.457031 20.167969 37.28125 20.121094 37.128906 20.152344 C 37.152344 20.226562 37.183594 20.296875 37.304688 20.308594 C 37.226562 20.453125 36.796875 20.433594 36.648438 20.488281 C 36.707031 20.585938 36.867188 20.503906 37.003906 20.488281 C 36.96875 20.550781 37.058594 20.535156 37.054688 20.582031 C 36.605469 20.597656 36.5625 20.730469 36.09375 20.683594 C 36.078125 21.101562 35.746094 21.316406 35.566406 21.628906 C 35.347656 21.589844 35.25 21.660156 35.136719 21.726562 C 35.125 21.773438 35.273438 21.714844 35.261719 21.757812 C 35.066406 21.816406 34.785156 21.804688 34.503906 21.828125 C 34.238281 21.847656 34.015625 21.851562 33.84375 21.785156 C 32.539062 21.945312 31.515625 21.820312 30.140625 21.890625 C 30.117188 21.839844 30.226562 21.867188 30.21875 21.828125 C 29.796875 21.824219 29.054688 21.945312 28.644531 21.855469 C 28.5625 21.867188 28.609375 21.800781 28.570312 21.789062 C 28.246094 21.800781 27.960938 21.902344 27.757812 21.796875 C 27.300781 21.773438 26.796875 21.902344 26.464844 21.804688 C 25.128906 21.828125 24.058594 21.886719 22.9375 21.765625 C 22.300781 21.738281 21.78125 21.78125 21.136719 21.746094 C 21.226562 21.671875 21.4375 21.671875 21.617188 21.648438 C 21.382812 21.621094 21 21.617188 20.679688 21.640625 C 19.601562 21.714844 18.480469 21.691406 17.382812 21.648438 C 17.332031 21.609375 17.390625 21.628906 17.40625 21.597656 C 17.191406 21.546875 16.964844 21.617188 16.773438 21.636719 C 16.726562 21.605469 16.769531 21.59375 16.773438 21.554688 C 16.554688 21.535156 16.621094 21.601562 16.496094 21.621094 C 16.375 21.636719 16.53125 21.578125 16.445312 21.574219 C 16.390625 21.566406 16.394531 21.597656 16.394531 21.621094 C 16.101562 21.601562 15.871094 21.585938 15.53125 21.613281 C 15.425781 21.621094 15.550781 21.570312 15.480469 21.546875 C 15.054688 21.542969 14.449219 21.636719 13.984375 21.589844 C 13.765625 21.570312 13.625 21.59375 13.375 21.59375 C 13.164062 21.597656 12.953125 21.511719 12.714844 21.488281 C 12.519531 21.46875 12.226562 21.535156 11.929688 21.492188 C 11.933594 21.472656 12.003906 21.488281 12.003906 21.460938 C 11.140625 21.492188 10.082031 21.496094 9.265625 21.578125 C 8.28125 21.515625 7.140625 21.671875 6.25 21.660156 C 6.269531 21.636719 6.3125 21.628906 6.375 21.628906 C 5.503906 21.566406 4.164062 21.554688 3.054688 21.589844 C 2.949219 21.597656 2.945312 21.671875 2.800781 21.65625 C 2.734375 21.746094 2.527344 21.753906 2.394531 21.785156 C 2.371094 21.789062 2.296875 21.832031 2.269531 21.832031 C 1.863281 21.851562 1.984375 21.554688 1.757812 21.40625 C 1.640625 21.453125 1.515625 21.472656 1.402344 21.410156 C 1.410156 21.308594 1.597656 21.316406 1.65625 21.25 C 1.625 21.226562 1.511719 21.195312 1.503906 21.25 C 1.445312 21.21875 1.445312 21.167969 1.503906 21.136719 C 1.414062 21.128906 1.441406 21.195312 1.351562 21.1875 C 1.339844 21.152344 1.367188 21.144531 1.375 21.121094 C 1.296875 21.113281 1.296875 21.152344 1.25 21.125 C 1.242188 21.023438 1.253906 20.9375 1.347656 20.898438 C 0.839844 20.796875 0.425781 20.539062 0 20.335938 C 0.0117188 20.234375 0.140625 20.210938 0.152344 20.109375 C 0.460938 20.050781 0.660156 20.023438 1.039062 20.007812 C 1.097656 19.976562 0.992188 19.917969 1.0625 19.878906 C 1.167969 19.894531 1.316406 19.890625 1.390625 19.816406 C 1.296875 19.792969 1.253906 19.808594 1.136719 19.785156 C 1.152344 19.746094 1.222656 19.742188 1.238281 19.703125 C 1.078125 19.613281 1.332031 19.46875 1.234375 19.367188 C 1.277344 19.332031 1.378906 19.394531 1.464844 19.382812 C 1.332031 19.335938 1.601562 19.355469 1.640625 19.316406 C 1.628906 19.285156 1.429688 19.355469 1.488281 19.289062 C 1.234375 19.3125 1.308594 19.277344 1.109375 19.289062 C 1.140625 19.046875 1.527344 18.953125 1.941406 18.835938 C 1.882812 18.789062 1.789062 18.695312 1.839844 18.632812 C 1.804688 18.601562 1.695312 18.660156 1.636719 18.664062 C 1.636719 18.617188 1.703125 18.609375 1.710938 18.566406 C 1.652344 18.53125 1.664062 18.59375 1.585938 18.585938 C 1.660156 18.492188 1.796875 18.519531 1.914062 18.472656 C 1.796875 18.410156 1.679688 18.46875 1.53125 18.472656 C 1.542969 18.449219 1.613281 18.460938 1.582031 18.410156 C 1.511719 18.40625 1.535156 18.464844 1.429688 18.441406 C 1.417969 18.394531 1.507812 18.40625 1.480469 18.347656 C 1.351562 18.367188 1.191406 18.378906 1.074219 18.367188 C 1.074219 18.308594 1.164062 18.304688 1.203125 18.269531 C 1.117188 18.242188 1.058594 18.285156 0.949219 18.285156 C 0.9375 18.214844 0.9375 18.140625 1.125 18.125 C 1.117188 18.089844 1.128906 18.066406 1.148438 18.046875 C 1.042969 18 0.996094 18.027344 0.769531 18.015625 C 0.730469 17.945312 0.875 17.890625 0.84375 17.839844 C 0.773438 17.722656 0.632812 17.746094 0.4375 17.746094 C 0.519531 17.683594 0.480469 17.640625 0.5625 17.585938 C 0.433594 17.539062 0.527344 17.480469 0.535156 17.378906 C 0.582031 17.378906 0.589844 17.398438 0.636719 17.394531 C 0.695312 17.226562 1.136719 17.292969 1.191406 17.121094 C 1.074219 17.089844 1.148438 16.9375 1.039062 16.898438 C 1.179688 16.6875 1.050781 16.3125 1.515625 16.304688 C 1.488281 16.234375 1.40625 16.203125 1.261719 16.210938 C 1.285156 16.136719 1.207031 16.128906 1.109375 16.132812 C 1.148438 16.050781 1.164062 16.042969 1.058594 16.003906 C 1.171875 15.863281 1.140625 15.722656 1.257812 15.523438 C 2.304688 15.582031 3.757812 15.578125 4.679688 15.628906 C 4.707031 15.628906 4.699219 15.609375 4.707031 15.597656 C 4.90625 15.683594 5.21875 15.632812 5.414062 15.574219 C 5.402344 15.589844 5.390625 15.601562 5.390625 15.625 C 5.5 15.632812 5.535156 15.59375 5.644531 15.605469 C 5.863281 15.640625 6.671875 15.539062 7.191406 15.53125 C 7.761719 15.519531 8.355469 15.445312 8.636719 15.375 C 8.726562 15.511719 9.015625 15.460938 9.320312 15.453125 C 9.398438 15.445312 9.363281 15.507812 9.421875 15.515625 C 9.578125 15.445312 10.03125 15.554688 10.207031 15.460938 C 10.222656 15.417969 10.199219 15.402344 10.132812 15.414062 C 10.3125 15.359375 10.539062 15.417969 10.742188 15.378906 C 10.722656 15.363281 10.683594 15.363281 10.6875 15.328125 C 11.035156 15.347656 11.40625 15.402344 11.628906 15.484375 C 11.753906 15.449219 11.828125 15.5 11.933594 15.511719 C 12.234375 15.550781 12.691406 15.476562 13.050781 15.472656 C 14.15625 15.460938 15.242188 15.546875 16.269531 15.480469 C 16.285156 15.496094 16.328125 15.496094 16.320312 15.53125 C 17.125 15.515625 17.765625 15.460938 18.550781 15.464844 C 18.558594 15.421875 18.5 15.425781 18.449219 15.417969 C 18.652344 15.402344 18.84375 15.460938 19.007812 15.496094 C 19.183594 15.382812 19.320312 15.507812 19.566406 15.507812 C 19.582031 15.542969 19.519531 15.53125 19.515625 15.554688 C 20.339844 15.609375 21.078125 15.363281 21.925781 15.488281 C 21.957031 15.460938 22.007812 15.445312 22.078125 15.441406 C 22.054688 15.542969 21.820312 15.515625 21.699219 15.554688 C 22.085938 15.558594 22.554688 15.503906 23.015625 15.59375 C 23.175781 15.445312 23.636719 15.535156 24.003906 15.492188 C 24.011719 15.515625 23.980469 15.519531 23.980469 15.539062 C 24.097656 15.539062 24.171875 15.566406 24.285156 15.570312 C 24.285156 15.515625 24.191406 15.523438 24.105469 15.523438 C 24.308594 15.441406 24.59375 15.578125 24.6875 15.421875 C 24.828125 15.441406 24.917969 15.441406 24.992188 15.386719 C 25 15.414062 24.96875 15.414062 24.96875 15.4375 C 25.671875 15.523438 26.46875 15.515625 27.378906 15.515625 C 27.367188 15.453125 27.203125 15.488281 27.148438 15.453125 C 28.011719 15.375 28.980469 15.609375 29.863281 15.433594 C 29.738281 15.382812 29.453125 15.394531 29.355469 15.375 C 29.300781 15.363281 29.1875 15.394531 29.175781 15.359375 C 29.464844 15.363281 29.566406 15.316406 29.8125 15.324219 C 29.851562 15.304688 29.863281 15.269531 29.9375 15.273438 C 29.882812 15.308594 29.949219 15.320312 29.9375 15.371094 C 30.046875 15.382812 30.078125 15.351562 30.140625 15.335938 C 30.28125 15.40625 30.410156 15.378906 30.570312 15.332031 C 31.453125 15.488281 32.578125 15.351562 33.566406 15.40625 C 33.328125 15.484375 32.972656 15.40625 32.753906 15.507812 C 32.796875 15.550781 33.007812 15.488281 32.957031 15.585938 C 33.066406 15.597656 33.0625 15.535156 33.160156 15.539062 C 33.191406 15.558594 33.195312 15.597656 33.160156 15.617188 C 33.367188 15.578125 33.75 15.585938 34 15.675781 C 33.921875 15.675781 33.847656 15.675781 33.769531 15.675781 C 34.296875 15.714844 35.109375 15.808594 35.722656 15.792969 C 35.777344 15.871094 35.832031 15.792969 36.03125 15.835938 Z M 17.792969 15.566406 C 17.917969 15.558594 18.050781 15.578125 17.945312 15.628906 C 18.046875 15.636719 18.074219 15.59375 18.148438 15.582031 C 18.039062 15.582031 18.085938 15.542969 18.121094 15.515625 C 18.023438 15.574219 17.808594 15.460938 17.792969 15.566406 Z M 30.117188 15.464844 C 30.085938 15.460938 30.066406 15.4375 30.066406 15.480469 C 30.195312 15.476562 30.320312 15.460938 30.394531 15.476562 C 30.386719 15.410156 30.175781 15.421875 30.117188 15.464844 Z M 23.121094 15.863281 C 23.097656 15.921875 23.261719 15.898438 23.246094 15.863281 C 23.183594 15.863281 23.167969 15.832031 23.121094 15.863281 Z M 23.296875 15.894531 C 23.382812 15.882812 23.535156 15.914062 23.578125 15.875 C 23.441406 15.867188 23.386719 15.824219 23.296875 15.894531 Z M 19.523438 16.65625 C 19.597656 16.703125 19.742188 16.644531 19.753906 16.703125 C 19.828125 16.703125 19.882812 16.652344 19.929688 16.683594 C 19.929688 16.664062 19.929688 16.640625 19.929688 16.621094 C 19.804688 16.636719 19.632812 16.625 19.523438 16.65625 Z M 31.402344 17.433594 C 31.476562 17.417969 31.585938 17.417969 31.601562 17.367188 C 31.503906 17.367188 31.378906 17.355469 31.402344 17.433594 Z M 31.960938 17.539062 C 32.308594 17.507812 31.808594 17.492188 31.757812 17.542969 C 31.839844 17.539062 31.90625 17.542969 31.960938 17.539062 Z M 8.964844 18.582031 C 8.984375 18.59375 9.121094 18.597656 9.117188 18.546875 C 9.050781 18.546875 8.96875 18.539062 8.964844 18.582031 Z M 16.527344 19.453125 C 16.5625 19.394531 16.378906 19.390625 16.351562 19.421875 C 16.449219 19.40625 16.414062 19.476562 16.527344 19.453125 Z M 16.933594 19.449219 C 17.160156 19.476562 17.347656 19.449219 17.621094 19.460938 C 17.480469 19.4375 17.074219 19.386719 16.933594 19.449219 Z M 18.253906 19.457031 C 18.214844 19.453125 18.164062 19.457031 18.175781 19.425781 C 18.023438 19.457031 17.789062 19.421875 17.671875 19.429688 C 17.949219 19.480469 18.082031 19.492188 18.253906 19.457031 Z M 15.589844 19.539062 C 15.417969 19.5625 15.175781 19.496094 15.109375 19.558594 C 15.40625 19.601562 16.0625 19.617188 16.402344 19.546875 C 16.132812 19.53125 15.96875 19.496094 15.71875 19.523438 C 15.914062 19.578125 15.542969 19.5 15.539062 19.507812 C 15.570312 19.511719 15.578125 19.523438 15.589844 19.539062 Z M 18.429688 19.519531 C 18.492188 19.519531 18.550781 19.515625 18.609375 19.515625 C 18.617188 19.453125 18.4375 19.492188 18.429688 19.519531 Z M 16.480469 19.546875 C 16.464844 19.550781 16.449219 19.550781 16.453125 19.5625 C 16.566406 19.570312 16.910156 19.550781 16.632812 19.546875 C 16.578125 19.511719 16.550781 19.5625 16.503906 19.53125 C 16.503906 19.523438 16.5 19.511719 16.476562 19.515625 C 16.480469 19.527344 16.480469 19.539062 16.480469 19.546875 Z M 15.035156 19.652344 C 15.007812 19.6875 14.941406 19.691406 14.90625 19.71875 C 15.460938 19.742188 16.402344 19.722656 17.039062 19.703125 C 16.476562 19.617188 15.699219 19.707031 15.035156 19.652344 Z M 33.25 20.289062 C 33.507812 20.390625 33.886719 20.429688 34.214844 20.410156 C 33.878906 20.398438 33.515625 20.242188 33.25 20.289062 Z M 32.132812 20.457031 C 32.214844 20.503906 32.429688 20.496094 32.515625 20.457031 C 32.507812 20.492188 32.519531 20.515625 32.566406 20.519531 C 32.609375 20.484375 32.546875 20.488281 32.589844 20.453125 C 32.449219 20.390625 32.300781 20.425781 32.132812 20.457031 Z M 31.675781 20.476562 C 31.777344 20.472656 31.820312 20.503906 31.929688 20.492188 C 31.921875 20.410156 31.679688 20.445312 31.675781 20.476562 Z M 33.886719 20.605469 C 33.96875 20.617188 34.042969 20.617188 34.1875 20.617188 C 34.1875 20.546875 33.96875 20.589844 33.886719 20.605469 Z M 11.292969 21.339844 C 11.230469 21.367188 11.046875 21.3125 10.964844 21.359375 C 11.019531 21.40625 11.257812 21.398438 11.292969 21.339844 Z M 22.328125 21.421875 C 22.234375 21.433594 22.183594 21.382812 22.125 21.421875 C 22.21875 21.496094 22.429688 21.472656 22.605469 21.464844 C 22.890625 21.457031 23.160156 21.417969 23.441406 21.445312 C 23.171875 21.359375 22.539062 21.40625 22.328125 21.421875 Z M 23.847656 21.425781 C 23.960938 21.445312 24.222656 21.425781 24.378906 21.390625 C 24.195312 21.410156 23.875 21.332031 23.847656 21.425781 Z M 25.394531 21.382812 C 25.390625 21.453125 25.148438 21.378906 25.140625 21.449219 C 25.269531 21.472656 25.359375 21.453125 25.472656 21.429688 C 25.484375 21.472656 25.492188 21.484375 25.546875 21.523438 C 26.074219 21.386719 26.585938 21.609375 27.09375 21.464844 C 26.535156 21.398438 25.953125 21.476562 25.394531 21.382812 Z M 20.730469 21.480469 C 20.601562 21.480469 20.4375 21.410156 20.375 21.515625 C 20.832031 21.539062 21.285156 21.527344 21.742188 21.441406 C 21.414062 21.441406 21.046875 21.480469 20.730469 21.480469 Z M 20.730469 21.480469 " fill-opacity="1" fill-rule="evenodd"/></g><g clip-path="url(#eb6505a083)"><path fill="#202020" d="M 36.03125 27.320312 C 35.816406 27.25 35.53125 27.222656 35.242188 27.199219 C 35.261719 27.183594 35.269531 27.164062 35.265625 27.132812 C 35.105469 27.128906 35.035156 27.183594 34.863281 27.167969 C 34.914062 27.136719 34.871094 27.109375 34.785156 27.121094 C 34.835938 27.082031 34.992188 27.105469 34.988281 27.152344 C 35.019531 27.148438 35.015625 27.121094 34.988281 27.121094 C 35.402344 27.140625 35.828125 27.074219 36.179688 27.144531 C 35.972656 27.007812 35.296875 27.007812 34.988281 26.929688 C 35.007812 26.890625 35.144531 26.914062 35.113281 26.960938 C 35.148438 26.945312 35.207031 26.945312 35.214844 26.910156 C 35.488281 26.964844 35.800781 26.984375 36.078125 26.96875 C 36.390625 27.085938 36.8125 27.128906 36.992188 27.332031 C 37.003906 27.460938 36.96875 27.527344 36.996094 27.632812 C 36.914062 27.769531 36.824219 27.898438 36.667969 27.984375 C 36.777344 28.117188 36.84375 28.214844 36.847656 28.351562 C 36.816406 28.378906 36.664062 28.410156 36.773438 28.433594 C 36.722656 28.453125 36.667969 28.472656 36.621094 28.496094 C 36.632812 28.539062 36.761719 28.550781 36.699219 28.59375 C 36.609375 28.605469 36.601562 28.570312 36.519531 28.578125 C 36.539062 28.671875 36.726562 28.710938 36.777344 28.832031 C 36.839844 28.980469 36.722656 29.15625 36.730469 29.339844 C 36.480469 29.34375 36.570312 29.578125 36.222656 29.550781 C 36.484375 29.65625 36.867188 29.757812 37.191406 29.769531 C 37.246094 29.832031 37.332031 30.003906 37.191406 30.054688 C 37.222656 30.085938 37.257812 30.109375 37.292969 30.136719 C 37.242188 30.175781 37.035156 30.136719 37.117188 30.214844 C 36.863281 30.253906 36.535156 30.199219 36.355469 30.332031 C 36.359375 30.375 36.453125 30.359375 36.484375 30.378906 C 36.492188 30.421875 36.4375 30.472656 36.460938 30.507812 C 36.601562 30.539062 36.53125 30.566406 36.664062 30.570312 C 36.632812 30.613281 36.585938 30.648438 36.488281 30.652344 C 36.5625 30.691406 36.707031 30.691406 36.742188 30.761719 C 36.453125 30.835938 36.324219 30.785156 36.003906 30.796875 C 36.464844 30.878906 36.875 30.992188 37.25 31.125 C 37.253906 31.195312 37.261719 31.265625 37.199219 31.253906 C 37.25 31.300781 37.285156 31.265625 37.328125 31.234375 C 37.355469 31.371094 37.371094 31.457031 37.507812 31.539062 C 37.457031 31.652344 37.28125 31.605469 37.128906 31.636719 C 37.152344 31.710938 37.183594 31.78125 37.304688 31.792969 C 37.226562 31.9375 36.796875 31.917969 36.648438 31.972656 C 36.707031 32.070312 36.867188 31.988281 37.003906 31.972656 C 36.96875 32.035156 37.058594 32.019531 37.054688 32.066406 C 36.605469 32.082031 36.5625 32.214844 36.09375 32.167969 C 36.078125 32.585938 35.746094 32.800781 35.566406 33.113281 C 35.347656 33.074219 35.25 33.144531 35.136719 33.210938 C 35.125 33.257812 35.273438 33.199219 35.261719 33.242188 C 35.066406 33.300781 34.785156 33.289062 34.503906 33.3125 C 34.238281 33.332031 34.015625 33.335938 33.84375 33.269531 C 32.539062 33.429688 31.515625 33.304688 30.140625 33.375 C 30.117188 33.324219 30.226562 33.351562 30.21875 33.3125 C 29.796875 33.308594 29.054688 33.429688 28.644531 33.339844 C 28.5625 33.351562 28.609375 33.285156 28.570312 33.273438 C 28.246094 33.285156 27.960938 33.386719 27.757812 33.28125 C 27.300781 33.257812 26.796875 33.386719 26.464844 33.289062 C 25.128906 33.3125 24.058594 33.371094 22.9375 33.25 C 22.300781 33.222656 21.78125 33.265625 21.136719 33.230469 C 21.226562 33.15625 21.4375 33.15625 21.617188 33.132812 C 21.382812 33.105469 21 33.101562 20.679688 33.125 C 19.601562 33.199219 18.480469 33.175781 17.382812 33.132812 C 17.332031 33.09375 17.390625 33.113281 17.40625 33.082031 C 17.191406 33.03125 16.964844 33.101562 16.773438 33.121094 C 16.726562 33.089844 16.769531 33.078125 16.773438 33.039062 C 16.554688 33.019531 16.621094 33.085938 16.496094 33.105469 C 16.375 33.121094 16.53125 33.0625 16.445312 33.058594 C 16.390625 33.050781 16.394531 33.082031 16.394531 33.105469 C 16.101562 33.085938 15.871094 33.070312 15.53125 33.097656 C 15.425781 33.105469 15.550781 33.054688 15.480469 33.03125 C 15.054688 33.027344 14.449219 33.121094 13.984375 33.074219 C 13.765625 33.054688 13.625 33.078125 13.375 33.078125 C 13.164062 33.082031 12.953125 32.996094 12.714844 32.972656 C 12.519531 32.953125 12.226562 33.019531 11.929688 32.976562 C 11.933594 32.957031 12.003906 32.972656 12.003906 32.945312 C 11.140625 32.976562 10.082031 32.980469 9.265625 33.0625 C 8.28125 33 7.140625 33.15625 6.25 33.144531 C 6.269531 33.121094 6.3125 33.113281 6.375 33.113281 C 5.503906 33.050781 4.164062 33.039062 3.054688 33.074219 C 2.949219 33.082031 2.945312 33.15625 2.800781 33.140625 C 2.734375 33.230469 2.527344 33.238281 2.394531 33.269531 C 2.371094 33.273438 2.296875 33.316406 2.269531 33.316406 C 1.863281 33.335938 1.984375 33.039062 1.757812 32.890625 C 1.640625 32.9375 1.515625 32.957031 1.402344 32.894531 C 1.410156 32.792969 1.597656 32.800781 1.65625 32.734375 C 1.625 32.710938 1.511719 32.679688 1.503906 32.734375 C 1.445312 32.703125 1.445312 32.652344 1.503906 32.621094 C 1.414062 32.613281 1.441406 32.679688 1.351562 32.671875 C 1.339844 32.636719 1.367188 32.628906 1.375 32.605469 C 1.296875 32.597656 1.296875 32.636719 1.25 32.609375 C 1.242188 32.507812 1.253906 32.421875 1.347656 32.382812 C 0.839844 32.28125 0.425781 32.023438 0 31.820312 C 0.0117188 31.71875 0.140625 31.695312 0.152344 31.59375 C 0.460938 31.535156 0.660156 31.507812 1.039062 31.492188 C 1.097656 31.460938 0.992188 31.402344 1.0625 31.363281 C 1.167969 31.378906 1.316406 31.375 1.390625 31.300781 C 1.296875 31.277344 1.253906 31.292969 1.136719 31.269531 C 1.152344 31.230469 1.222656 31.226562 1.238281 31.1875 C 1.078125 31.097656 1.332031 30.953125 1.234375 30.851562 C 1.277344 30.816406 1.378906 30.878906 1.464844 30.867188 C 1.332031 30.820312 1.601562 30.839844 1.640625 30.800781 C 1.628906 30.769531 1.429688 30.839844 1.488281 30.773438 C 1.234375 30.796875 1.308594 30.761719 1.109375 30.773438 C 1.140625 30.53125 1.527344 30.4375 1.941406 30.320312 C 1.882812 30.273438 1.789062 30.179688 1.839844 30.117188 C 1.804688 30.085938 1.695312 30.144531 1.636719 30.148438 C 1.636719 30.101562 1.703125 30.09375 1.710938 30.050781 C 1.652344 30.015625 1.664062 30.078125 1.585938 30.070312 C 1.660156 29.976562 1.796875 30.003906 1.914062 29.957031 C 1.796875 29.894531 1.679688 29.953125 1.53125 29.957031 C 1.542969 29.933594 1.613281 29.945312 1.582031 29.894531 C 1.511719 29.890625 1.535156 29.949219 1.429688 29.925781 C 1.417969 29.878906 1.507812 29.890625 1.480469 29.832031 C 1.351562 29.847656 1.191406 29.863281 1.074219 29.847656 C 1.074219 29.792969 1.164062 29.789062 1.203125 29.753906 C 1.117188 29.726562 1.058594 29.769531 0.949219 29.769531 C 0.9375 29.699219 0.9375 29.625 1.125 29.609375 C 1.117188 29.574219 1.128906 29.550781 1.148438 29.53125 C 1.042969 29.484375 0.996094 29.511719 0.769531 29.5 C 0.730469 29.429688 0.875 29.375 0.84375 29.324219 C 0.773438 29.207031 0.632812 29.230469 0.4375 29.230469 C 0.519531 29.167969 0.480469 29.125 0.5625 29.070312 C 0.433594 29.023438 0.527344 28.964844 0.535156 28.863281 C 0.582031 28.863281 0.589844 28.882812 0.636719 28.878906 C 0.695312 28.710938 1.136719 28.777344 1.191406 28.605469 C 1.074219 28.574219 1.148438 28.421875 1.039062 28.382812 C 1.179688 28.171875 1.050781 27.796875 1.515625 27.789062 C 1.488281 27.71875 1.40625 27.6875 1.261719 27.695312 C 1.285156 27.621094 1.207031 27.613281 1.109375 27.617188 C 1.148438 27.535156 1.164062 27.527344 1.058594 27.488281 C 1.171875 27.347656 1.140625 27.207031 1.257812 27.007812 C 2.304688 27.066406 3.757812 27.0625 4.679688 27.113281 C 4.707031 27.113281 4.699219 27.09375 4.707031 27.082031 C 4.90625 27.167969 5.21875 27.117188 5.414062 27.058594 C 5.402344 27.074219 5.390625 27.085938 5.390625 27.109375 C 5.5 27.117188 5.535156 27.078125 5.644531 27.089844 C 5.863281 27.125 6.671875 27.023438 7.191406 27.015625 C 7.761719 27.003906 8.355469 26.929688 8.636719 26.859375 C 8.726562 26.996094 9.015625 26.945312 9.320312 26.9375 C 9.398438 26.929688 9.363281 26.992188 9.421875 27 C 9.578125 26.929688 10.03125 27.039062 10.207031 26.945312 C 10.222656 26.902344 10.199219 26.886719 10.132812 26.898438 C 10.3125 26.84375 10.539062 26.902344 10.742188 26.863281 C 10.722656 26.847656 10.683594 26.847656 10.6875 26.8125 C 11.035156 26.832031 11.40625 26.886719 11.628906 26.96875 C 11.753906 26.933594 11.828125 26.984375 11.933594 26.996094 C 12.234375 27.035156 12.691406 26.960938 13.050781 26.957031 C 14.15625 26.945312 15.242188 27.03125 16.269531 26.964844 C 16.285156 26.980469 16.328125 26.980469 16.320312 27.015625 C 17.125 27 17.765625 26.945312 18.550781 26.949219 C 18.558594 26.90625 18.5 26.910156 18.449219 26.902344 C 18.652344 26.886719 18.84375 26.945312 19.007812 26.980469 C 19.183594 26.867188 19.320312 26.992188 19.566406 26.992188 C 19.582031 27.027344 19.519531 27.015625 19.515625 27.039062 C 20.339844 27.09375 21.078125 26.847656 21.925781 26.972656 C 21.957031 26.945312 22.007812 26.929688 22.078125 26.925781 C 22.054688 27.027344 21.820312 27 21.699219 27.039062 C 22.085938 27.042969 22.554688 26.988281 23.015625 27.078125 C 23.175781 26.929688 23.636719 27.019531 24.003906 26.976562 C 24.011719 27 23.980469 27.003906 23.980469 27.023438 C 24.097656 27.023438 24.171875 27.050781 24.285156 27.054688 C 24.285156 27 24.191406 27.007812 24.105469 27.007812 C 24.308594 26.925781 24.59375 27.0625 24.6875 26.90625 C 24.828125 26.925781 24.917969 26.925781 24.992188 26.871094 C 25 26.898438 24.96875 26.898438 24.96875 26.921875 C 25.671875 27.007812 26.46875 27 27.378906 27 C 27.367188 26.9375 27.203125 26.972656 27.148438 26.9375 C 28.011719 26.859375 28.980469 27.09375 29.863281 26.917969 C 29.738281 26.867188 29.453125 26.878906 29.355469 26.859375 C 29.300781 26.847656 29.1875 26.878906 29.175781 26.84375 C 29.464844 26.847656 29.566406 26.800781 29.8125 26.808594 C 29.851562 26.789062 29.863281 26.753906 29.9375 26.757812 C 29.882812 26.792969 29.949219 26.804688 29.9375 26.855469 C 30.046875 26.867188 30.078125 26.835938 30.140625 26.820312 C 30.28125 26.890625 30.410156 26.863281 30.570312 26.816406 C 31.453125 26.972656 32.578125 26.835938 33.566406 26.890625 C 33.328125 26.96875 32.972656 26.890625 32.753906 26.992188 C 32.796875 27.035156 33.007812 26.972656 32.957031 27.070312 C 33.066406 27.082031 33.0625 27.019531 33.160156 27.023438 C 33.191406 27.042969 33.195312 27.082031 33.160156 27.101562 C 33.367188 27.0625 33.75 27.070312 34 27.160156 C 33.921875 27.160156 33.847656 27.160156 33.769531 27.160156 C 34.296875 27.199219 35.109375 27.292969 35.722656 27.277344 C 35.777344 27.355469 35.832031 27.277344 36.03125 27.320312 Z M 17.792969 27.050781 C 17.917969 27.042969 18.050781 27.0625 17.945312 27.113281 C 18.046875 27.121094 18.074219 27.078125 18.148438 27.066406 C 18.039062 27.066406 18.085938 27.027344 18.121094 27 C 18.023438 27.058594 17.808594 26.945312 17.792969 27.050781 Z M 30.117188 26.949219 C 30.085938 26.945312 30.066406 26.921875 30.066406 26.964844 C 30.195312 26.960938 30.320312 26.945312 30.394531 26.960938 C 30.386719 26.894531 30.175781 26.90625 30.117188 26.949219 Z M 23.121094 27.347656 C 23.097656 27.40625 23.261719 27.382812 23.246094 27.347656 C 23.183594 27.347656 23.167969 27.316406 23.121094 27.347656 Z M 23.296875 27.378906 C 23.382812 27.367188 23.535156 27.398438 23.578125 27.359375 C 23.441406 27.351562 23.386719 27.308594 23.296875 27.378906 Z M 19.523438 28.140625 C 19.597656 28.1875 19.742188 28.128906 19.753906 28.1875 C 19.828125 28.1875 19.882812 28.136719 19.929688 28.167969 C 19.929688 28.148438 19.929688 28.125 19.929688 28.105469 C 19.804688 28.121094 19.632812 28.109375 19.523438 28.140625 Z M 31.402344 28.917969 C 31.476562 28.902344 31.585938 28.902344 31.601562 28.851562 C 31.503906 28.851562 31.378906 28.839844 31.402344 28.917969 Z M 31.960938 29.023438 C 32.308594 28.992188 31.808594 28.976562 31.757812 29.027344 C 31.839844 29.023438 31.90625 29.027344 31.960938 29.023438 Z M 8.964844 30.066406 C 8.984375 30.078125 9.121094 30.082031 9.117188 30.03125 C 9.050781 30.03125 8.96875 30.023438 8.964844 30.066406 Z M 16.527344 30.9375 C 16.5625 30.878906 16.378906 30.875 16.351562 30.90625 C 16.449219 30.890625 16.414062 30.960938 16.527344 30.9375 Z M 16.933594 30.933594 C 17.160156 30.960938 17.347656 30.933594 17.621094 30.945312 C 17.480469 30.921875 17.074219 30.871094 16.933594 30.933594 Z M 18.253906 30.941406 C 18.214844 30.9375 18.164062 30.941406 18.175781 30.910156 C 18.023438 30.941406 17.789062 30.90625 17.671875 30.914062 C 17.949219 30.964844 18.082031 30.976562 18.253906 30.941406 Z M 15.589844 31.023438 C 15.417969 31.046875 15.175781 30.980469 15.109375 31.042969 C 15.40625 31.085938 16.0625 31.101562 16.402344 31.03125 C 16.132812 31.015625 15.96875 30.980469 15.71875 31.007812 C 15.914062 31.0625 15.542969 30.984375 15.539062 30.992188 C 15.570312 30.996094 15.578125 31.007812 15.589844 31.023438 Z M 18.429688 31.003906 C 18.492188 31.003906 18.550781 31 18.609375 31 C 18.617188 30.9375 18.4375 30.976562 18.429688 31.003906 Z M 16.480469 31.03125 C 16.464844 31.035156 16.449219 31.035156 16.453125 31.046875 C 16.566406 31.054688 16.910156 31.035156 16.632812 31.03125 C 16.578125 30.996094 16.550781 31.046875 16.503906 31.015625 C 16.503906 31.007812 16.5 30.996094 16.476562 31 C 16.480469 31.011719 16.480469 31.023438 16.480469 31.03125 Z M 15.035156 31.136719 C 15.007812 31.171875 14.941406 31.175781 14.90625 31.203125 C 15.460938 31.226562 16.402344 31.207031 17.039062 31.1875 C 16.476562 31.101562 15.699219 31.191406 15.035156 31.136719 Z M 33.25 31.773438 C 33.507812 31.875 33.886719 31.914062 34.214844 31.894531 C 33.878906 31.882812 33.515625 31.726562 33.25 31.773438 Z M 32.132812 31.941406 C 32.214844 31.988281 32.429688 31.980469 32.515625 31.941406 C 32.507812 31.976562 32.519531 32 32.566406 32.003906 C 32.609375 31.96875 32.546875 31.972656 32.589844 31.9375 C 32.449219 31.875 32.300781 31.910156 32.132812 31.941406 Z M 31.675781 31.960938 C 31.777344 31.957031 31.820312 31.988281 31.929688 31.976562 C 31.921875 31.894531 31.679688 31.929688 31.675781 31.960938 Z M 33.886719 32.089844 C 33.96875 32.101562 34.042969 32.101562 34.1875 32.101562 C 34.1875 32.03125 33.96875 32.074219 33.886719 32.089844 Z M 11.292969 32.824219 C 11.230469 32.851562 11.046875 32.796875 10.964844 32.84375 C 11.019531 32.890625 11.257812 32.882812 11.292969 32.824219 Z M 22.328125 32.90625 C 22.234375 32.917969 22.183594 32.867188 22.125 32.90625 C 22.21875 32.980469 22.429688 32.957031 22.605469 32.949219 C 22.890625 32.941406 23.160156 32.902344 23.441406 32.929688 C 23.171875 32.84375 22.539062 32.890625 22.328125 32.90625 Z M 23.847656 32.910156 C 23.960938 32.929688 24.222656 32.910156 24.378906 32.875 C 24.195312 32.894531 23.875 32.816406 23.847656 32.910156 Z M 25.394531 32.867188 C 25.390625 32.9375 25.148438 32.863281 25.140625 32.933594 C 25.269531 32.957031 25.359375 32.9375 25.472656 32.914062 C 25.484375 32.957031 25.492188 32.96875 25.546875 33.007812 C 26.074219 32.871094 26.585938 33.09375 27.09375 32.949219 C 26.535156 32.882812 25.953125 32.960938 25.394531 32.867188 Z M 20.730469 32.964844 C 20.601562 32.964844 20.4375 32.894531 20.375 33 C 20.832031 33.023438 21.285156 33.011719 21.742188 32.925781 C 21.414062 32.925781 21.046875 32.964844 20.730469 32.964844 Z M 20.730469 32.964844 " fill-opacity="1" fill-rule="evenodd"/></g></svg>