<svg xmlns="http://www.w3.org/2000/svg" xmlns:xlink="http://www.w3.org/1999/xlink" width="50" zoomAndPan="magnify" viewBox="0 0 37.5 37.499999" height="50" preserveAspectRatio="xMidYMid meet" version="1.0"><defs><clipPath id="93b3404e32"><path d="M 1 1 L 37 1 L 37 37 L 1 37 Z M 1 1 " clip-rule="nonzero"/></clipPath><clipPath id="d56a938c66"><path d="M 5.917969 0.00390625 L 37.738281 31.824219 L 31.902344 37.65625 L 0.0820312 5.835938 Z M 5.917969 0.00390625 " clip-rule="nonzero"/></clipPath><clipPath id="3c6f6596bf"><path d="M 5.917969 0.00390625 L 37.738281 31.824219 L 31.902344 37.65625 L 0.0820312 5.835938 Z M 5.917969 0.00390625 " clip-rule="nonzero"/></clipPath><clipPath id="2235c534d9"><path d="M 0 0 L 36 0 L 36 36 L 0 36 Z M 0 0 " clip-rule="nonzero"/></clipPath><clipPath id="27db19d920"><path d="M -0.347656 31.574219 L 31.472656 -0.246094 L 37.304688 5.589844 L 5.484375 37.40625 Z M -0.347656 31.574219 " clip-rule="nonzero"/></clipPath><clipPath id="18b3723f7b"><path d="M -0.347656 31.574219 L 31.472656 -0.246094 L 37.304688 5.589844 L 5.484375 37.40625 Z M -0.347656 31.574219 " clip-rule="nonzero"/></clipPath></defs><g clip-path="url(#93b3404e32)"><g clip-path="url(#d56a938c66)"><g clip-path="url(#3c6f6596bf)"><path fill="#ff8080" d="M 35.96875 31.09375 C 35.851562 30.851562 35.632812 30.585938 35.40625 30.320312 C 35.4375 30.324219 35.460938 30.3125 35.484375 30.285156 C 35.351562 30.144531 35.246094 30.132812 35.109375 29.972656 C 35.183594 29.988281 35.171875 29.929688 35.085938 29.867188 C 35.164062 29.875 35.277344 30.027344 35.230469 30.066406 C 35.261719 30.089844 35.28125 30.058594 35.257812 30.035156 C 35.589844 30.40625 36.007812 30.710938 36.25 31.070312 C 36.195312 30.773438 35.621094 30.203125 35.421875 29.871094 C 35.472656 29.855469 35.570312 29.988281 35.503906 30.003906 C 35.546875 30.019531 35.597656 30.070312 35.632812 30.050781 C 35.820312 30.328125 36.070312 30.609375 36.3125 30.832031 C 36.480469 31.195312 36.800781 31.59375 36.78125 31.917969 C 36.675781 32.042969 36.585938 32.070312 36.519531 32.183594 C 36.335938 32.230469 36.144531 32.269531 35.9375 32.210938 C 35.917969 32.417969 35.886719 32.558594 35.773438 32.679688 C 35.722656 32.675781 35.566406 32.574219 35.640625 32.6875 C 35.578125 32.660156 35.515625 32.628906 35.457031 32.613281 C 35.429688 32.660156 35.527344 32.777344 35.4375 32.761719 C 35.351562 32.699219 35.375 32.660156 35.300781 32.597656 C 35.234375 32.695312 35.359375 32.886719 35.296875 33.035156 C 35.222656 33.214844 34.96875 33.269531 34.816406 33.4375 C 34.605469 33.226562 34.476562 33.503906 34.207031 33.1875 C 34.339844 33.5 34.570312 33.914062 34.835938 34.195312 C 34.832031 34.300781 34.753906 34.519531 34.589844 34.445312 C 34.589844 34.496094 34.601562 34.546875 34.609375 34.601562 C 34.53125 34.589844 34.386719 34.382812 34.390625 34.519531 C 34.140625 34.339844 33.910156 34.011719 33.644531 33.976562 C 33.609375 34.015625 33.703125 34.078125 33.710938 34.125 C 33.683594 34.167969 33.589844 34.167969 33.578125 34.214844 C 33.671875 34.363281 33.589844 34.328125 33.699219 34.441406 C 33.632812 34.453125 33.5625 34.441406 33.476562 34.363281 C 33.507812 34.460938 33.628906 34.582031 33.597656 34.671875 C 33.289062 34.492188 33.226562 34.339844 32.941406 34.082031 C 33.261719 34.539062 33.515625 34.984375 33.71875 35.417969 C 33.660156 35.484375 33.605469 35.546875 33.566406 35.488281 C 33.5625 35.570312 33.625 35.570312 33.6875 35.582031 C 33.589844 35.722656 33.53125 35.808594 33.578125 35.996094 C 33.4375 36.050781 33.328125 35.859375 33.171875 35.757812 C 33.125 35.84375 33.09375 35.929688 33.1875 36.046875 C 32.992188 36.105469 32.644531 35.71875 32.472656 35.644531 C 32.4375 35.773438 32.640625 35.839844 32.777344 35.941406 C 32.691406 35.96875 32.78125 36.03125 32.738281 36.066406 C 32.339844 35.699219 32.191406 35.777344 31.832031 35.339844 C 31.460938 35.6875 30.992188 35.59375 30.570312 35.710938 C 30.414062 35.492188 30.273438 35.46875 30.117188 35.429688 C 30.070312 35.460938 30.246094 35.535156 30.199219 35.566406 C 29.984375 35.445312 29.753906 35.203125 29.492188 34.980469 C 29.25 34.773438 29.0625 34.585938 28.972656 34.382812 C 27.726562 33.414062 26.964844 32.4375 25.738281 31.332031 C 25.761719 31.269531 25.828125 31.386719 25.859375 31.34375 C 25.5 30.984375 24.769531 30.457031 24.5 30.03125 C 24.417969 29.976562 24.515625 29.957031 24.492188 29.910156 C 24.210938 29.648438 23.875 29.492188 23.796875 29.226562 C 23.429688 28.820312 22.890625 28.503906 22.691406 28.136719 C 21.542969 27.027344 20.582031 26.164062 19.734375 25.113281 C 19.21875 24.546875 18.738281 24.140625 18.222656 23.570312 C 18.363281 23.578125 18.546875 23.757812 18.714844 23.890625 C 18.539062 23.667969 18.21875 23.339844 17.925781 23.085938 C 16.949219 22.238281 16.019531 21.265625 15.125 20.296875 C 15.113281 20.222656 15.144531 20.285156 15.1875 20.277344 C 15.046875 20.046875 14.792969 19.917969 14.617188 19.769531 C 14.601562 19.703125 14.648438 19.730469 14.6875 19.699219 C 14.519531 19.5 14.515625 19.613281 14.390625 19.519531 C 14.28125 19.433594 14.457031 19.515625 14.390625 19.4375 C 14.351562 19.382812 14.328125 19.414062 14.304688 19.433594 C 14.078125 19.167969 13.894531 18.960938 13.582031 18.695312 C 13.488281 18.613281 13.632812 18.675781 13.59375 18.597656 C 13.238281 18.230469 12.644531 17.796875 12.289062 17.363281 C 12.121094 17.160156 11.980469 17.0625 11.765625 16.851562 C 11.585938 16.671875 11.480469 16.421875 11.300781 16.199219 C 11.152344 16.015625 10.847656 15.824219 10.628906 15.535156 C 10.652344 15.519531 10.699219 15.59375 10.71875 15.574219 C 9.964844 14.863281 9.0625 13.96875 8.296875 13.347656 C 7.515625 12.460938 6.414062 11.625 5.664062 10.863281 C 5.703125 10.859375 5.746094 10.886719 5.800781 10.941406 C 5.113281 10.144531 3.988281 9 3.015625 8.085938 C 2.917969 8.003906 2.851562 8.066406 2.742188 7.929688 C 2.605469 7.949219 2.429688 7.785156 2.285156 7.699219 C 2.261719 7.683594 2.160156 7.65625 2.136719 7.632812 C 1.78125 7.304688 2.136719 7.152344 2.074219 6.832031 C 1.929688 6.769531 1.8125 6.679688 1.769531 6.53125 C 1.863281 6.453125 2.011719 6.617188 2.125 6.605469 C 2.117188 6.558594 2.046875 6.441406 1.992188 6.476562 C 1.972656 6.402344 2.015625 6.359375 2.089844 6.382812 C 2.019531 6.296875 1.988281 6.378906 1.917969 6.292969 C 1.9375 6.257812 1.96875 6.273438 1.996094 6.261719 C 1.933594 6.183594 1.902344 6.21875 1.886719 6.152344 C 1.96875 6.0625 2.054688 5.996094 2.164062 6.042969 C 1.820312 5.523438 1.695312 4.949219 1.507812 4.410156 C 1.601562 4.335938 1.734375 4.421875 1.828125 4.34375 C 2.144531 4.558594 2.339844 4.703125 2.671875 5.007812 C 2.75 5.035156 2.707031 4.894531 2.800781 4.921875 C 2.878906 5.023438 3.011719 5.144531 3.140625 5.140625 C 3.078125 5.042969 3.023438 5.019531 2.949219 4.902344 C 2.996094 4.882812 3.058594 4.933594 3.105469 4.917969 C 3.046875 4.699219 3.386719 4.796875 3.390625 4.625 C 3.460938 4.628906 3.492188 4.769531 3.574219 4.832031 C 3.503906 4.675781 3.714844 4.921875 3.78125 4.925781 C 3.800781 4.886719 3.570312 4.777344 3.675781 4.769531 C 3.441406 4.574219 3.535156 4.609375 3.351562 4.449219 C 3.585938 4.265625 4 4.515625 4.449219 4.765625 C 4.441406 4.675781 4.441406 4.511719 4.542969 4.5 C 4.539062 4.441406 4.398438 4.402344 4.339844 4.355469 C 4.382812 4.3125 4.445312 4.363281 4.488281 4.335938 C 4.46875 4.25 4.425781 4.316406 4.367188 4.242188 C 4.511719 4.226562 4.601562 4.367188 4.742188 4.421875 C 4.699219 4.273438 4.546875 4.222656 4.417969 4.101562 C 4.449219 4.089844 4.5 4.160156 4.515625 4.089844 C 4.457031 4.027344 4.429688 4.097656 4.359375 3.988281 C 4.390625 3.9375 4.457031 4.023438 4.484375 3.949219 C 4.359375 3.855469 4.210938 3.734375 4.125 3.621094 C 4.175781 3.570312 4.253906 3.644531 4.316406 3.644531 C 4.265625 3.550781 4.179688 3.539062 4.085938 3.445312 C 4.136719 3.375 4.199219 3.3125 4.375 3.457031 C 4.398438 3.417969 4.429688 3.40625 4.464844 3.40625 C 4.410156 3.277344 4.347656 3.261719 4.164062 3.058594 C 4.191406 2.964844 4.363281 3.039062 4.382812 2.972656 C 4.421875 2.8125 4.285156 2.710938 4.117188 2.546875 C 4.242188 2.558594 4.242188 2.492188 4.359375 2.511719 C 4.292969 2.363281 4.425781 2.390625 4.515625 2.3125 C 4.558594 2.347656 4.546875 2.371094 4.589844 2.410156 C 4.785156 2.3125 5.105469 2.746094 5.300781 2.644531 C 5.226562 2.515625 5.421875 2.445312 5.359375 2.320312 C 5.660156 2.261719 5.878906 1.828125 6.28125 2.210938 C 6.316406 2.128906 6.273438 2.03125 6.144531 1.914062 C 6.226562 1.871094 6.171875 1.796875 6.082031 1.71875 C 6.1875 1.683594 6.207031 1.691406 6.148438 1.566406 C 6.367188 1.539062 6.464844 1.394531 6.734375 1.320312 C 7.574219 2.253906 8.8125 3.488281 9.550781 4.3125 C 9.570312 4.335938 9.582031 4.3125 9.597656 4.308594 C 9.695312 4.554688 10 4.773438 10.21875 4.890625 C 10.199219 4.890625 10.175781 4.890625 10.15625 4.910156 C 10.242188 5.015625 10.300781 5.007812 10.386719 5.113281 C 10.542969 5.324219 11.316406 5.925781 11.765625 6.359375 C 12.257812 6.835938 12.824219 7.273438 13.121094 7.453125 C 13.082031 7.648438 13.375 7.847656 13.640625 8.097656 C 13.710938 8.15625 13.625 8.183594 13.671875 8.238281 C 13.863281 8.308594 14.152344 8.789062 14.382812 8.859375 C 14.433594 8.835938 14.425781 8.800781 14.359375 8.753906 C 14.5625 8.859375 14.699219 9.101562 14.910156 9.238281 C 14.90625 9.210938 14.871094 9.175781 14.90625 9.15625 C 15.183594 9.464844 15.453125 9.820312 15.570312 10.082031 C 15.703125 10.160156 15.726562 10.265625 15.804688 10.367188 C 16.027344 10.65625 16.476562 10.980469 16.785156 11.28125 C 17.734375 12.207031 18.582031 13.203125 19.511719 14.019531 C 19.511719 14.050781 19.546875 14.085938 19.511719 14.105469 C 20.203125 14.777344 20.796875 15.269531 21.460938 15.945312 C 21.503906 15.914062 21.449219 15.863281 21.414062 15.816406 C 21.601562 15.972656 21.710938 16.183594 21.824219 16.355469 C 22.070312 16.40625 22.074219 16.632812 22.285156 16.839844 C 22.269531 16.882812 22.226562 16.820312 22.203125 16.839844 C 22.855469 17.585938 23.695312 17.996094 24.300781 18.828125 C 24.351562 18.832031 24.410156 18.859375 24.472656 18.914062 C 24.363281 18.980469 24.191406 18.757812 24.050781 18.691406 C 24.378906 19.023438 24.824219 19.375 25.136719 19.84375 C 25.402344 19.847656 25.714844 20.316406 26.066406 20.589844 C 26.050781 20.621094 26.019531 20.59375 26.003906 20.613281 C 26.105469 20.710938 26.144531 20.796875 26.234375 20.894531 C 26.285156 20.851562 26.195312 20.777344 26.125 20.707031 C 26.363281 20.808594 26.488281 21.167969 26.707031 21.113281 C 26.804688 21.246094 26.882812 21.324219 26.992188 21.339844 C 26.976562 21.371094 26.949219 21.34375 26.929688 21.363281 C 27.449219 22.035156 28.136719 22.703125 28.90625 23.476562 C 28.949219 23.410156 28.78125 23.304688 28.765625 23.226562 C 29.566406 23.890625 30.1875 24.917969 31.085938 25.511719 C 31.023438 25.363281 30.773438 25.128906 30.707031 25.03125 C 30.667969 24.976562 30.546875 24.90625 30.570312 24.867188 C 30.808594 25.117188 30.933594 25.160156 31.136719 25.371094 C 31.1875 25.390625 31.226562 25.371094 31.289062 25.4375 C 31.210938 25.421875 31.257812 25.488281 31.207031 25.523438 C 31.285156 25.628906 31.339844 25.625 31.40625 25.664062 C 31.464844 25.84375 31.597656 25.929688 31.773438 26.027344 C 32.386719 26.910156 33.460938 27.746094 34.25 28.632812 C 33.980469 28.496094 33.746094 28.128906 33.472656 28.03125 C 33.476562 28.105469 33.707031 28.226562 33.578125 28.273438 C 33.664062 28.371094 33.710938 28.3125 33.792969 28.402344 C 33.804688 28.445312 33.769531 28.480469 33.726562 28.472656 C 33.933594 28.613281 34.25 28.941406 34.386719 29.230469 C 34.320312 29.167969 34.253906 29.105469 34.191406 29.039062 C 34.605469 29.519531 35.214844 30.289062 35.75 30.796875 C 35.726562 30.914062 35.839844 30.890625 35.96875 31.09375 Z M 20.730469 15.386719 C 20.84375 15.484375 20.9375 15.613281 20.804688 15.570312 C 20.886719 15.664062 20.945312 15.648438 21.019531 15.699219 C 20.925781 15.609375 20.996094 15.617188 21.050781 15.621094 C 20.917969 15.589844 20.832031 15.308594 20.730469 15.386719 Z M 31.277344 25.753906 C 31.25 25.726562 31.253906 25.6875 31.21875 25.726562 C 31.332031 25.832031 31.449219 25.925781 31.5 26.003906 C 31.554688 25.9375 31.363281 25.769531 31.277344 25.753906 Z M 24.992188 20.164062 C 24.921875 20.195312 25.085938 20.3125 25.101562 20.269531 C 25.046875 20.214844 25.058594 20.179688 24.992188 20.164062 Z M 25.117188 20.339844 C 25.199219 20.40625 25.300781 20.558594 25.367188 20.5625 C 25.261719 20.441406 25.25 20.355469 25.117188 20.339844 Z M 21.257812 17.796875 C 21.277344 17.902344 21.453125 17.96875 21.410156 18.03125 C 21.476562 18.097656 21.5625 18.097656 21.578125 18.167969 C 21.59375 18.148438 21.613281 18.132812 21.632812 18.113281 C 21.511719 18.019531 21.375 17.863281 21.257812 17.796875 Z M 30.664062 28.546875 C 30.742188 28.597656 30.832031 28.691406 30.890625 28.660156 C 30.804688 28.578125 30.710938 28.464844 30.664062 28.546875 Z M 31.042969 29.113281 C 31.367188 29.382812 30.953125 28.945312 30.871094 28.941406 C 30.945312 29.011719 30.996094 29.074219 31.042969 29.113281 Z M 10.632812 10.5 C 10.636719 10.53125 10.75 10.648438 10.789062 10.601562 C 10.730469 10.546875 10.667969 10.46875 10.632812 10.5 Z M 16.296875 17.671875 C 16.375 17.648438 16.222656 17.492188 16.171875 17.496094 C 16.269531 17.566406 16.179688 17.597656 16.296875 17.671875 Z M 16.644531 18.015625 C 16.8125 18.230469 16.996094 18.367188 17.214844 18.605469 C 17.117188 18.46875 16.816406 18.082031 16.644531 18.015625 Z M 17.757812 19.140625 C 17.722656 19.105469 17.679688 19.066406 17.71875 19.046875 C 17.558594 18.949219 17.394531 18.71875 17.285156 18.621094 C 17.476562 18.902344 17.578125 19.027344 17.757812 19.140625 Z M 15.425781 16.953125 C 15.257812 16.828125 15.109375 16.5625 15 16.558594 C 15.214844 16.851562 15.757812 17.421875 16.105469 17.648438 C 15.894531 17.410156 15.785156 17.238281 15.546875 17.046875 C 15.664062 17.261719 15.417969 16.878906 15.410156 16.882812 C 15.433594 16.910156 15.429688 16.929688 15.425781 16.953125 Z M 17.855469 19.34375 C 17.90625 19.394531 17.953125 19.445312 18.003906 19.496094 C 18.070312 19.449219 17.882812 19.328125 17.855469 19.34375 Z M 16.171875 17.714844 C 16.15625 17.703125 16.144531 17.691406 16.136719 17.707031 C 16.222656 17.808594 16.535156 18.082031 16.300781 17.84375 C 16.285156 17.765625 16.21875 17.785156 16.207031 17.722656 C 16.214844 17.710938 16.21875 17.703125 16.199219 17.6875 C 16.191406 17.695312 16.179688 17.703125 16.171875 17.714844 Z M 14.855469 16.578125 C 14.804688 16.585938 14.742188 16.53125 14.691406 16.527344 C 15.136719 17.019531 15.957031 17.800781 16.511719 18.324219 C 16.109375 17.769531 15.371094 17.191406 14.855469 16.578125 Z M 29.757812 32.585938 C 29.894531 32.894531 30.183594 33.246094 30.472656 33.507812 C 30.203125 33.214844 30.027344 32.769531 29.757812 32.585938 Z M 28.667969 31.785156 C 28.695312 31.894531 28.886719 32.070312 28.992188 32.105469 C 28.957031 32.132812 28.949219 32.164062 28.980469 32.203125 C 29.046875 32.210938 28.992188 32.160156 29.058594 32.167969 C 28.992188 31.996094 28.839844 31.898438 28.667969 31.785156 Z M 28.265625 31.414062 C 28.355469 31.496094 28.359375 31.558594 28.46875 31.640625 C 28.53125 31.5625 28.292969 31.386719 28.265625 31.414062 Z M 30.027344 33.398438 C 30.085938 33.480469 30.152344 33.539062 30.273438 33.667969 C 30.335938 33.601562 30.109375 33.457031 30.027344 33.398438 Z M 10.222656 14.863281 C 10.144531 14.832031 10.039062 14.628906 9.925781 14.597656 C 9.933594 14.6875 10.140625 14.882812 10.222656 14.863281 Z M 19.515625 24.296875 C 19.425781 24.226562 19.425781 24.144531 19.339844 24.125 C 19.359375 24.265625 19.558594 24.425781 19.710938 24.570312 C 19.960938 24.804688 20.222656 25 20.441406 25.261719 C 20.285156 24.957031 19.707031 24.460938 19.515625 24.296875 Z M 20.800781 25.589844 C 20.878906 25.703125 21.117188 25.910156 21.285156 26.011719 C 21.109375 25.871094 20.90625 25.53125 20.800781 25.589844 Z M 22.152344 26.867188 C 22.085938 26.921875 21.945312 26.652344 21.878906 26.707031 C 21.964844 26.839844 22.0625 26.894531 22.175781 26.972656 C 22.148438 27.019531 22.144531 27.035156 22.15625 27.121094 C 22.726562 27.445312 22.96875 28.074219 23.519531 28.382812 C 23.105469 27.847656 22.542969 27.417969 22.152344 26.867188 Z M 18.109375 22.992188 C 17.996094 22.882812 17.917969 22.683594 17.777344 22.71875 C 18.140625 23.128906 18.535156 23.503906 19 23.816406 C 18.722656 23.535156 18.378906 23.261719 18.109375 22.992188 Z M 18.109375 22.992188 " fill-opacity="1" fill-rule="evenodd"/></g></g></g><g clip-path="url(#2235c534d9)"><g clip-path="url(#27db19d920)"><g clip-path="url(#18b3723f7b)"><path fill="#ff8080" d="M 30.742188 1.519531 C 30.5 1.640625 30.234375 1.859375 29.96875 2.082031 C 29.972656 2.054688 29.960938 2.027344 29.933594 2.007812 C 29.792969 2.140625 29.78125 2.242188 29.621094 2.382812 C 29.640625 2.304688 29.578125 2.320312 29.515625 2.40625 C 29.523438 2.328125 29.679688 2.214844 29.714844 2.257812 C 29.738281 2.226562 29.707031 2.210938 29.6875 2.230469 C 30.054688 1.898438 30.359375 1.480469 30.71875 1.242188 C 30.421875 1.296875 29.855469 1.871094 29.519531 2.066406 C 29.503906 2.019531 29.636719 1.921875 29.65625 1.988281 C 29.667969 1.945312 29.722656 1.894531 29.699219 1.859375 C 29.976562 1.671875 30.257812 1.421875 30.480469 1.175781 C 30.84375 1.011719 31.242188 0.691406 31.570312 0.710938 C 31.691406 0.8125 31.71875 0.90625 31.832031 0.972656 C 31.882812 1.15625 31.917969 1.34375 31.859375 1.554688 C 32.066406 1.574219 32.207031 1.605469 32.332031 1.71875 C 32.324219 1.769531 32.222656 1.925781 32.335938 1.851562 C 32.308594 1.914062 32.28125 1.976562 32.261719 2.035156 C 32.308594 2.0625 32.429688 1.960938 32.410156 2.054688 C 32.347656 2.140625 32.308594 2.117188 32.246094 2.191406 C 32.34375 2.253906 32.535156 2.132812 32.683594 2.191406 C 32.863281 2.269531 32.921875 2.519531 33.085938 2.675781 C 32.875 2.886719 33.152344 3.015625 32.839844 3.285156 C 33.148438 3.152344 33.5625 2.921875 33.84375 2.652344 C 33.949219 2.660156 34.167969 2.738281 34.09375 2.898438 C 34.144531 2.898438 34.199219 2.890625 34.25 2.882812 C 34.238281 2.960938 34.03125 3.101562 34.167969 3.101562 C 33.988281 3.351562 33.660156 3.578125 33.625 3.847656 C 33.664062 3.878906 33.726562 3.789062 33.773438 3.78125 C 33.816406 3.808594 33.816406 3.902344 33.863281 3.910156 C 34.015625 3.820312 33.976562 3.902344 34.089844 3.792969 C 34.101562 3.859375 34.089844 3.925781 34.011719 4.011719 C 34.113281 3.984375 34.234375 3.863281 34.320312 3.890625 C 34.140625 4.203125 33.992188 4.265625 33.730469 4.546875 C 34.1875 4.230469 34.632812 3.976562 35.070312 3.773438 C 35.132812 3.828125 35.199219 3.886719 35.136719 3.925781 C 35.222656 3.929688 35.222656 3.863281 35.230469 3.804688 C 35.371094 3.898438 35.457031 3.960938 35.644531 3.914062 C 35.699219 4.054688 35.511719 4.164062 35.40625 4.320312 C 35.492188 4.367188 35.582031 4.398438 35.695312 4.304688 C 35.753906 4.5 35.371094 4.847656 35.292969 5.019531 C 35.425781 5.050781 35.492188 4.847656 35.589844 4.714844 C 35.617188 4.800781 35.679688 4.710938 35.71875 4.753906 C 35.347656 5.152344 35.425781 5.296875 34.988281 5.660156 C 35.335938 6.03125 35.242188 6.5 35.359375 6.921875 C 35.140625 7.078125 35.117188 7.21875 35.082031 7.375 C 35.109375 7.421875 35.1875 7.246094 35.214844 7.292969 C 35.09375 7.507812 34.851562 7.738281 34.628906 7.996094 C 34.421875 8.242188 34.234375 8.429688 34.03125 8.519531 C 33.0625 9.765625 32.085938 10.523438 30.984375 11.753906 C 30.917969 11.726562 31.035156 11.664062 30.992188 11.632812 C 30.632812 11.988281 30.105469 12.722656 29.679688 12.992188 C 29.625 13.074219 29.605469 12.976562 29.5625 13 C 29.296875 13.28125 29.140625 13.613281 28.878906 13.695312 C 28.46875 14.058594 28.152344 14.601562 27.789062 14.800781 C 26.675781 15.949219 25.816406 16.910156 24.761719 17.757812 C 24.195312 18.273438 23.792969 18.75 23.21875 19.269531 C 23.230469 19.125 23.40625 18.945312 23.539062 18.777344 C 23.320312 18.953125 22.992188 19.269531 22.738281 19.5625 C 21.886719 20.542969 20.914062 21.472656 19.945312 22.367188 C 19.871094 22.378906 19.933594 22.347656 19.925781 22.304688 C 19.699219 22.445312 19.566406 22.699219 19.417969 22.875 C 19.351562 22.890625 19.382812 22.84375 19.347656 22.804688 C 19.148438 22.972656 19.261719 22.976562 19.167969 23.097656 C 19.082031 23.210938 19.164062 23.035156 19.085938 23.101562 C 19.035156 23.140625 19.066406 23.160156 19.085938 23.183594 C 18.820312 23.414062 18.609375 23.597656 18.34375 23.910156 C 18.261719 24.003906 18.324219 23.859375 18.246094 23.898438 C 17.878906 24.253906 17.445312 24.847656 17.011719 25.203125 C 16.808594 25.371094 16.710938 25.511719 16.5 25.722656 C 16.320312 25.90625 16.070312 26.011719 15.847656 26.191406 C 15.664062 26.339844 15.472656 26.644531 15.1875 26.863281 C 15.171875 26.839844 15.246094 26.792969 15.222656 26.769531 C 14.515625 27.527344 13.621094 28.429688 12.996094 29.195312 C 12.109375 29.976562 11.273438 31.078125 10.511719 31.828125 C 10.507812 31.789062 10.535156 31.742188 10.589844 31.691406 C 9.796875 32.375 8.648438 33.503906 7.738281 34.476562 C 7.65625 34.574219 7.714844 34.636719 7.578125 34.746094 C 7.601562 34.882812 7.433594 35.0625 7.347656 35.203125 C 7.332031 35.230469 7.304688 35.328125 7.28125 35.355469 C 6.953125 35.710938 6.800781 35.355469 6.480469 35.417969 C 6.417969 35.558594 6.328125 35.679688 6.179688 35.722656 C 6.101562 35.625 6.265625 35.476562 6.253906 35.367188 C 6.207031 35.375 6.089844 35.445312 6.128906 35.496094 C 6.050781 35.519531 6.007812 35.472656 6.03125 35.402344 C 5.945312 35.472656 6.027344 35.503906 5.945312 35.574219 C 5.90625 35.554688 5.921875 35.523438 5.910156 35.496094 C 5.832031 35.558594 5.871094 35.589844 5.804688 35.605469 C 5.710938 35.523438 5.648438 35.4375 5.695312 35.328125 C 5.171875 35.671875 4.597656 35.796875 4.0625 35.984375 C 3.984375 35.886719 4.070312 35.757812 3.996094 35.660156 C 4.207031 35.347656 4.351562 35.152344 4.660156 34.820312 C 4.683594 34.742188 4.542969 34.785156 4.570312 34.6875 C 4.671875 34.613281 4.796875 34.480469 4.792969 34.351562 C 4.691406 34.410156 4.667969 34.464844 4.550781 34.542969 C 4.53125 34.496094 4.585938 34.433594 4.566406 34.386719 C 4.351562 34.445312 4.445312 34.105469 4.273438 34.097656 C 4.277344 34.03125 4.417969 34 4.480469 33.917969 C 4.324219 33.988281 4.570312 33.777344 4.574219 33.710938 C 4.535156 33.691406 4.425781 33.921875 4.417969 33.8125 C 4.226562 34.050781 4.257812 33.957031 4.097656 34.140625 C 3.914062 33.902344 4.164062 33.492188 4.414062 33.039062 C 4.324219 33.046875 4.160156 33.050781 4.148438 32.949219 C 4.09375 32.953125 4.050781 33.09375 4.003906 33.148438 C 3.964844 33.109375 4.011719 33.046875 3.984375 33.003906 C 3.902344 33.019531 3.964844 33.0625 3.890625 33.125 C 3.875 32.980469 4.015625 32.890625 4.074219 32.746094 C 3.921875 32.792969 3.871094 32.945312 3.753906 33.074219 C 3.738281 33.042969 3.808594 32.992188 3.738281 32.976562 C 3.675781 33.035156 3.746094 33.0625 3.640625 33.132812 C 3.585938 33.097656 3.671875 33.035156 3.597656 33.007812 C 3.503906 33.132812 3.382812 33.28125 3.269531 33.367188 C 3.21875 33.316406 3.292969 33.238281 3.292969 33.175781 C 3.199219 33.226562 3.1875 33.3125 3.09375 33.40625 C 3.023438 33.355469 2.960938 33.292969 3.105469 33.117188 C 3.066406 33.09375 3.054688 33.0625 3.058594 33.027344 C 2.929688 33.078125 2.914062 33.144531 2.707031 33.324219 C 2.613281 33.296875 2.691406 33.128906 2.621094 33.109375 C 2.460938 33.070312 2.359375 33.207031 2.195312 33.375 C 2.207031 33.25 2.140625 33.246094 2.164062 33.128906 C 2.011719 33.195312 2.042969 33.066406 1.960938 32.972656 C 1.996094 32.933594 2.023438 32.945312 2.058594 32.902344 C 1.960938 32.703125 2.394531 32.386719 2.292969 32.191406 C 2.167969 32.265625 2.09375 32.070312 1.96875 32.128906 C 1.910156 31.828125 1.476562 31.613281 1.863281 31.210938 C 1.78125 31.175781 1.683594 31.21875 1.566406 31.347656 C 1.523438 31.261719 1.449219 31.320312 1.367188 31.40625 C 1.332031 31.304688 1.339844 31.285156 1.214844 31.34375 C 1.191406 31.121094 1.042969 31.027344 0.96875 30.757812 C 1.90625 29.917969 3.136719 28.679688 3.964844 27.941406 C 3.984375 27.917969 3.960938 27.90625 3.957031 27.890625 C 4.203125 27.796875 4.421875 27.488281 4.539062 27.273438 C 4.539062 27.292969 4.542969 27.316406 4.5625 27.335938 C 4.664062 27.25 4.660156 27.1875 4.761719 27.105469 C 4.976562 26.949219 5.574219 26.175781 6.007812 25.726562 C 6.484375 25.234375 6.925781 24.667969 7.101562 24.367188 C 7.296875 24.410156 7.496094 24.117188 7.746094 23.851562 C 7.808594 23.78125 7.835938 23.863281 7.886719 23.820312 C 7.957031 23.625 8.4375 23.335938 8.507812 23.105469 C 8.484375 23.058594 8.449219 23.066406 8.402344 23.128906 C 8.507812 22.929688 8.753906 22.792969 8.886719 22.582031 C 8.859375 22.582031 8.824219 22.617188 8.804688 22.585938 C 9.113281 22.304688 9.472656 22.039062 9.734375 21.921875 C 9.808594 21.785156 9.917969 21.765625 10.015625 21.6875 C 10.304688 21.464844 10.628906 21.015625 10.929688 20.707031 C 11.855469 19.757812 12.855469 18.910156 13.671875 17.980469 C 13.699219 17.980469 13.734375 17.945312 13.753906 17.980469 C 14.425781 17.285156 14.917969 16.695312 15.59375 16.03125 C 15.5625 15.988281 15.511719 16.039062 15.464844 16.074219 C 15.621094 15.890625 15.835938 15.78125 16.003906 15.667969 C 16.058594 15.421875 16.28125 15.417969 16.488281 15.203125 C 16.53125 15.222656 16.46875 15.265625 16.488281 15.289062 C 17.234375 14.636719 17.648438 13.796875 18.476562 13.1875 C 18.480469 13.136719 18.507812 13.082031 18.5625 13.019531 C 18.628906 13.125 18.40625 13.300781 18.339844 13.4375 C 18.671875 13.113281 19.023438 12.667969 19.492188 12.351562 C 19.5 12.085938 19.964844 11.777344 20.242188 11.425781 C 20.269531 11.441406 20.246094 11.46875 20.261719 11.488281 C 20.363281 11.386719 20.449219 11.347656 20.546875 11.257812 C 20.5 11.207031 20.425781 11.296875 20.355469 11.367188 C 20.457031 11.125 20.816406 11.003906 20.761719 10.785156 C 20.894531 10.683594 20.972656 10.605469 20.992188 10.5 C 21.019531 10.515625 20.996094 10.542969 21.011719 10.5625 C 21.683594 10.042969 22.351562 9.355469 23.125 8.585938 C 23.0625 8.542969 22.953125 8.710938 22.875 8.726562 C 23.539062 7.925781 24.566406 7.304688 25.160156 6.40625 C 25.011719 6.46875 24.777344 6.71875 24.679688 6.785156 C 24.625 6.820312 24.554688 6.945312 24.515625 6.921875 C 24.765625 6.683594 24.8125 6.558594 25.023438 6.351562 C 25.039062 6.304688 25.023438 6.261719 25.085938 6.203125 C 25.070312 6.28125 25.136719 6.230469 25.171875 6.285156 C 25.277344 6.207031 25.273438 6.152344 25.3125 6.085938 C 25.492188 6.027344 25.578125 5.894531 25.675781 5.714844 C 26.558594 5.105469 27.394531 4.03125 28.28125 3.242188 C 28.148438 3.511719 27.777344 3.742188 27.679688 4.015625 C 27.753906 4.015625 27.875 3.785156 27.921875 3.910156 C 28.023438 3.828125 27.964844 3.777344 28.050781 3.699219 C 28.097656 3.6875 28.128906 3.71875 28.121094 3.765625 C 28.261719 3.558594 28.59375 3.238281 28.882812 3.105469 C 28.816406 3.171875 28.753906 3.234375 28.6875 3.300781 C 29.167969 2.886719 29.941406 2.277344 30.445312 1.742188 C 30.5625 1.765625 30.539062 1.652344 30.742188 1.519531 Z M 15.035156 16.761719 C 15.136719 16.648438 15.265625 16.550781 15.21875 16.6875 C 15.3125 16.605469 15.296875 16.546875 15.347656 16.472656 C 15.257812 16.5625 15.265625 16.492188 15.273438 16.441406 C 15.238281 16.574219 14.957031 16.660156 15.035156 16.761719 Z M 25.402344 6.214844 C 25.375 6.238281 25.339844 6.238281 25.375 6.273438 C 25.484375 6.160156 25.574219 6.042969 25.652344 5.992188 C 25.585938 5.9375 25.417969 6.128906 25.402344 6.214844 Z M 19.8125 12.5 C 19.84375 12.570312 19.960938 12.40625 19.921875 12.390625 C 19.867188 12.441406 19.828125 12.433594 19.8125 12.5 Z M 19.992188 12.375 C 20.054688 12.292969 20.207031 12.191406 20.210938 12.121094 C 20.089844 12.230469 20.003906 12.242188 19.992188 12.375 Z M 17.445312 16.234375 C 17.550781 16.214844 17.621094 16.039062 17.679688 16.078125 C 17.746094 16.015625 17.75 15.929688 17.816406 15.914062 C 17.796875 15.894531 17.78125 15.878906 17.761719 15.859375 C 17.667969 15.980469 17.511719 16.117188 17.445312 16.234375 Z M 28.195312 6.828125 C 28.246094 6.75 28.339844 6.660156 28.3125 6.601562 C 28.226562 6.6875 28.113281 6.78125 28.195312 6.828125 Z M 28.761719 6.449219 C 29.035156 6.121094 28.59375 6.535156 28.59375 6.621094 C 28.660156 6.546875 28.722656 6.496094 28.761719 6.449219 Z M 10.152344 26.859375 C 10.179688 26.855469 10.296875 26.742188 10.25 26.703125 C 10.195312 26.761719 10.117188 26.820312 10.152344 26.859375 Z M 17.324219 21.195312 C 17.300781 21.117188 17.140625 21.269531 17.144531 21.320312 C 17.214844 21.222656 17.246094 21.3125 17.324219 21.195312 Z M 17.664062 20.847656 C 17.878906 20.679688 18.015625 20.496094 18.253906 20.277344 C 18.117188 20.375 17.730469 20.675781 17.664062 20.847656 Z M 18.789062 19.734375 C 18.753906 19.765625 18.71875 19.8125 18.699219 19.773438 C 18.597656 19.929688 18.367188 20.097656 18.269531 20.207031 C 18.550781 20.015625 18.675781 19.910156 18.789062 19.734375 Z M 16.601562 22.066406 C 16.476562 22.234375 16.214844 22.382812 16.210938 22.492188 C 16.5 22.273438 17.070312 21.730469 17.300781 21.382812 C 17.058594 21.597656 16.886719 21.703125 16.695312 21.941406 C 16.914062 21.824219 16.527344 22.074219 16.53125 22.082031 C 16.558594 22.058594 16.582031 22.0625 16.601562 22.066406 Z M 18.996094 19.636719 C 19.042969 19.585938 19.09375 19.535156 19.144531 19.484375 C 19.097656 19.421875 18.976562 19.609375 18.996094 19.636719 Z M 17.363281 21.320312 C 17.351562 21.332031 17.339844 21.347656 17.355469 21.355469 C 17.457031 21.265625 17.730469 20.957031 17.492188 21.191406 C 17.417969 21.203125 17.433594 21.273438 17.371094 21.285156 C 17.359375 21.277344 17.351562 21.273438 17.335938 21.292969 C 17.34375 21.300781 17.355469 21.3125 17.363281 21.320312 Z M 16.230469 22.636719 C 16.234375 22.6875 16.179688 22.75 16.179688 22.800781 C 16.667969 22.351562 17.449219 21.535156 17.972656 20.980469 C 17.421875 21.382812 16.839844 22.117188 16.230469 22.636719 Z M 32.234375 7.730469 C 32.542969 7.597656 32.898438 7.308594 33.15625 7.019531 C 32.863281 7.289062 32.417969 7.460938 32.234375 7.730469 Z M 31.433594 8.824219 C 31.542969 8.792969 31.71875 8.601562 31.753906 8.496094 C 31.78125 8.535156 31.8125 8.542969 31.851562 8.507812 C 31.859375 8.445312 31.808594 8.5 31.816406 8.433594 C 31.644531 8.496094 31.546875 8.652344 31.433594 8.824219 Z M 31.0625 9.226562 C 31.144531 9.136719 31.207031 9.128906 31.289062 9.023438 C 31.214844 8.960938 31.035156 9.195312 31.0625 9.226562 Z M 33.046875 7.464844 C 33.128906 7.40625 33.191406 7.339844 33.316406 7.21875 C 33.25 7.15625 33.105469 7.378906 33.046875 7.464844 Z M 14.511719 27.269531 C 14.484375 27.34375 14.277344 27.453125 14.25 27.5625 C 14.339844 27.558594 14.53125 27.351562 14.511719 27.269531 Z M 23.945312 17.976562 C 23.875 18.066406 23.792969 18.0625 23.773438 18.152344 C 23.917969 18.132812 24.078125 17.933594 24.222656 17.78125 C 24.457031 17.53125 24.648438 17.269531 24.914062 17.050781 C 24.609375 17.203125 24.109375 17.785156 23.945312 17.976562 Z M 25.238281 16.691406 C 25.351562 16.613281 25.558594 16.375 25.660156 16.207031 C 25.519531 16.382812 25.179688 16.585938 25.238281 16.691406 Z M 26.515625 15.339844 C 26.574219 15.40625 26.300781 15.546875 26.359375 15.613281 C 26.488281 15.527344 26.546875 15.429688 26.621094 15.316406 C 26.667969 15.34375 26.683594 15.347656 26.769531 15.332031 C 27.09375 14.765625 27.722656 14.523438 28.03125 13.96875 C 27.496094 14.386719 27.066406 14.945312 26.515625 15.339844 Z M 22.640625 19.382812 C 22.53125 19.492188 22.332031 19.574219 22.371094 19.714844 C 22.777344 19.347656 23.152344 18.953125 23.46875 18.488281 C 23.1875 18.769531 22.910156 19.113281 22.640625 19.382812 Z M 22.640625 19.382812 " fill-opacity="1" fill-rule="evenodd"/></g></g></g></svg>